<svg xmlns="http://www.w3.org/2000/svg" viewBox="0 0 164.33 164.33"><defs><style>.cls-1{fill:#d7a600;}.cls-2{fill:#fff;}</style></defs><g id="レイヤー_2" data-name="レイヤー 2"><g id="Layer_1" data-name="Layer 1"><rect class="cls-1" width="164.33" height="164.33"/><path class="cls-2" d="M13.25,41.41l7.58-11.72.47-.7a30.72,30.72,0,0,0,2.17-3.69A7.66,7.66,0,0,0,24.16,22a3.83,3.83,0,0,0-.58-2.3,1.93,1.93,0,0,0-1.66-.79,2.3,2.3,0,0,0-2.25,1.23,7.79,7.79,0,0,0-.61,3.41V25H13.25V23.46a10.81,10.81,0,0,1,2.07-7c1.38-1.72,3.54-2.57,6.48-2.57q4.07,0,6.17,2.14a8.33,8.33,0,0,1,2.11,6.1,10.38,10.38,0,0,1-.54,3.36,15.1,15.1,0,0,1-1.28,2.83c-.49.82-1.25,2-2.28,3.52l-6,9h9.32v4.72h-16Z"/><path class="cls-2" d="M65.47,139.9v2.32a.43.43,0,0,1,0,.05s0,0,0,.06a1.09,1.09,0,0,0,1.07,1H93.87a1.09,1.09,0,0,0,1.07-1.09h0v-2.63c15.33-5,26.82-17.45,29.34-32.59,0,0,0-.06,0-.09a.86.86,0,0,0,0-.16,1.1,1.1,0,0,0-1.1-1.1H36.42a1.1,1.1,0,0,0-1.1,1.1l0,.5c2.66,15.29,14.46,27.78,30.1,32.6"/><path class="cls-2" d="M94.92,68.66c-.36.51-8.74,12.58.19,22.34,4.09,4.48,3.74,8.44,2.57,11.11h5.72c1.16-3.94.69-8.89-4-14-6.58-7.19.08-16.92.18-17.07a2.14,2.14,0,0,0-.93-3.2,3,3,0,0,0-3.77.79"/><path class="cls-2" d="M80.41,102.11h5.73c1.16-4,.68-8.89-4-14-6.58-7.19.07-16.91.18-17.07a2.14,2.14,0,0,0-.93-3.2,3,3,0,0,0-3.77.79c-.36.51-8.75,12.58.19,22.34,4.09,4.49,3.74,8.44,2.57,11.11"/><path class="cls-2" d="M60.38,68.66c-.36.51-8.75,12.58.19,22.34,4.09,4.49,3.74,8.44,2.57,11.11h5.73c1.16-3.94.68-8.89-4-14-6.59-7.19.08-16.92.18-17.07a2.14,2.14,0,0,0-.93-3.2,3,3,0,0,0-3.77.79"/><path class="cls-2" d="M81.48,20.84a.27.27,0,0,1-.18-.07c-.87.3-2.55,1-3.35,1.33v2.17H76.53c0-.2,0-.41,0-.65v-.79c-1,.45-1.45,1-1.45,1.68s.56.86,1.66.86a17.83,17.83,0,0,0,3.51-.26l0,1.58a14.92,14.92,0,0,1-3.1.17c-2.36,0-3.55-.75-3.55-2.26a2.78,2.78,0,0,1,1-2,8.57,8.57,0,0,1,1.84-1.22c0-.63-.22-1-.57-1a1.73,1.73,0,0,0-1.24.54,8.75,8.75,0,0,0-.93,1c-.45.49-.73.83-.9,1-.21-.26-.55-.64-1-1.16a10.08,10.08,0,0,0,3-3.82c-.64.09-1.35.14-2.12.19,0-.54-.12-1-.19-1.47a20.67,20.67,0,0,0,2.76-.14,11.84,11.84,0,0,0,.41-1.95l1.63.37c.1,0,.14.08.14.17s-.06.15-.19.21c-.06.24-.17.61-.32,1.09a20.16,20.16,0,0,0,2.26-.53L79.1,17.4c-.66.15-1.56.29-2.67.44a8.11,8.11,0,0,1-.75,1.41,2.63,2.63,0,0,1,.69-.1c.74,0,1.22.5,1.44,1.51,1-.51,2.06-1,3.26-1.56l.56,1.58C81.63,20.79,81.58,20.84,81.48,20.84Z"/><path class="cls-2" d="M56.46,26.4a2.93,2.93,0,0,1-1.44.5c-1.44,0-1.65-.88-1.65-2.27,0-2.71,0-5.41,0-8.12H52.07v2.93c0,2.71-.1,5.95-2.2,7.79l-1.18-.75a4.11,4.11,0,0,0,.78-.83l-.35.24c-.1-.18-.21-.37-.3-.55-1.09.51-2.22.91-3.33,1.39,0,.08-.07.24-.16.24a.22.22,0,0,1-.21-.13l-.64-1.31a9.9,9.9,0,0,0,1.07-.28V19c-.17.14-.32.29-.5.42l-.89-1a9.82,9.82,0,0,0,3.09-4.27l1.43.35s.19.05.19.14a.13.13,0,0,1-.12.14,10.27,10.27,0,0,0,1.76,2.07l-.95,1A15.11,15.11,0,0,1,48,16.05a11.09,11.09,0,0,1-1.84,2.44h1.1V17.26l1.32.1c.1,0,.24,0,.24.17s-.14.2-.22.24v.72h1.26V23h-3V24.9c.45-.16.9-.35,1.35-.54a7.83,7.83,0,0,0-.57-.72l1.09-.6c.4.59.8,1.2,1.16,1.82a11.73,11.73,0,0,0,.73-4.65c0-1.66,0-3.34-.08-5h4.31c0,3.15-.06,6.31-.06,9.46,0,.32,0,.76.38.76a2.27,2.27,0,0,0,1.36-.87Zm-8-6.95H46.88v.84h1.63Zm0,1.82H46.88v.78h1.63Z"/><path class="cls-2" d="M68.67,27.31a8.06,8.06,0,0,1-1.5-2.14A6.62,6.62,0,0,1,65.3,27l-.63-.83a2.56,2.56,0,0,1-1.26,1.11l-.83-.94c1-.4,1.25-.84,1.25-2,0-.41,0-.8,0-1.21l-.48.25c0,.13-.09.32-.21.32a.16.16,0,0,1-.11-.1l-.38-1.08v.61H60.27v2c.39-.18.81-.34,1.19-.55a8.15,8.15,0,0,0-.44-.75l1-.56c.42.73.8,1.48,1.15,2.24l-.9.66c-.09-.18-.2-.35-.3-.52-.89.45-1.81.88-2.72,1.3,0,.13-.06.27-.19.27a.18.18,0,0,1-.12-.08l-.72-1.29a8.82,8.82,0,0,0,.86-.31V19.05a2.59,2.59,0,0,1-.42.39l-.81-1.08a9,9,0,0,0,2.61-4l1.45.45a.11.11,0,0,1,.07.11.15.15,0,0,1-.06.11,6.08,6.08,0,0,0,1,1.42A7.19,7.19,0,0,0,65.2,15c.23.36.48.68.71,1,0-.42,0-.85,0-1.27v-.24l1.52.3a.17.17,0,0,1,.15.17c0,.15-.17.23-.27.26-.07,1-.07,2-.07,3v.39h2.08V19.9h-2a15.92,15.92,0,0,0,.17,2.39,10.83,10.83,0,0,0,.42-2l1.23.86a.2.2,0,0,1,.09.18.27.27,0,0,1-.2.24A10.14,10.14,0,0,1,68,23.83a5.47,5.47,0,0,0,1.7,2.24Zm-8.24-9.82c-.27.38-.55.74-.86,1.1h.86Zm-.16,2.06v.87h1.16v-.87Zm1.17,1.86H60.27v.85h1.17Zm2.38-1.52h-1V18.67h1V17.31c-.28.12-.54.26-.83.36l-.3-.36-.43.41a8.49,8.49,0,0,1-1.07-1.5c-.21.39-.44.77-.68,1.14l1.12.13c.09,0,.26,0,.26.17s-.12.21-.21.25v.68h1v3.64l1.18-.42Zm2.2,0h-1v1.5c.3-.15.59-.27.88-.41v1.27c-.28.15-.58.25-.86.4v2.09a3.05,3.05,0,0,1-.19,1.05,5.47,5.47,0,0,0,1.72-2A12.27,12.27,0,0,1,66,19.89Zm-.09-3.42-.17,0c-.22.14-.44.28-.67.4v1.84H66C66,17.94,65.93,17.21,65.93,16.47Zm3.39-.07c-.29.54-.55,1.12-.86,1.65l-1-.46c.25-.74.41-1.52.6-2.27l1.44.75s0,.1,0,.15S69.42,16.4,69.32,16.4Z"/><path class="cls-2" d="M55,36.79c-.16.28-.3.55-.45.8a15.12,15.12,0,0,1-2.83,3.73,8.41,8.41,0,0,0-1.33-1A10.06,10.06,0,0,0,52.6,37.4c-.48.06-1,.15-1.42.22l-2.1.36c0,.56,0,1.12,0,1.68v2c0,1.17.55,1.27,1.46,1.27a15.45,15.45,0,0,0,4-.48c0,.63-.14,1.26-.19,1.88-1.31.12-2.61.18-3.93.18-1.53,0-3-.43-3-2.47V38.23c-1,.16-1.9.37-2.85.55-.07-.58-.14-1.19-.22-1.78,1-.08,2-.19,3.05-.35V33.31l1.82.21c.11,0,.23.06.23.21a.34.34,0,0,1-.2.26c0,.8,0,1.6-.06,2.41,1.29-.19,2.58-.44,3.87-.65a4.11,4.11,0,0,0,1-.28,11.63,11.63,0,0,1,1.11,1.18C55.12,36.73,55,36.78,55,36.79ZM53.23,35a14.7,14.7,0,0,0-1.18-2l1-.57a16.52,16.52,0,0,1,1.12,2Zm1.85-.62a15.76,15.76,0,0,0-1.22-2.08l1-.61a14.4,14.4,0,0,1,1.15,2Z"/><path class="cls-2" d="M66,44.25V43.5H60.58v.81H58.91c0-3.21,0-6.41,0-9.63,1.49,0,3,0,4.48,0s2.84,0,4.25,0c0,3,0,6.08,0,9.12v.45Zm0-8H60.58V42H66Z"/><path class="cls-2" d="M73.42,45c-.44,0-.88.1-1.33.16a18.65,18.65,0,0,1-.63-5.54,36.27,36.27,0,0,1,.63-6.24l1.06.25a3.46,3.46,0,0,1,.53.14.17.17,0,0,1,.13.19.2.2,0,0,1-.19.19,28.58,28.58,0,0,0-.71,6.47c0,.53,0,1,0,1.57.22-.66.43-1.34.66-2l.92.85A13.83,13.83,0,0,0,73.42,45Zm7.76-.69a9.26,9.26,0,0,1-2.23.12c-1.74,0-3.37-.34-3.58-3,.41-.31.82-.63,1.24-.93,0,1.52.71,2.2,1.85,2.24a7.76,7.76,0,0,0,2.75-.34C81.2,43,81.19,43.64,81.18,44.29Zm-.44-7.88a9.62,9.62,0,0,0-2.83-.18,14.61,14.61,0,0,0-2,.34c0-.52-.08-1.17-.15-1.7a15.19,15.19,0,0,1,2.77-.33,9.84,9.84,0,0,1,2.3.11C80.83,35.23,80.8,35.83,80.74,36.41Z"/></g></g></svg>