<svg xmlns="http://www.w3.org/2000/svg" viewBox="0 0 164.33 164.33"><defs><style>.cls-1{fill:#c60f28;}.cls-2{fill:#fff;}</style></defs><g id="レイヤー_2" data-name="レイヤー 2"><g id="Layer_1" data-name="Layer 1"><rect class="cls-1" width="164.33" height="164.33"/><path class="cls-2" d="M22,38.2H12.56V33.48l8.16-19.19h6.69V33.67h3.13V38.2H27.41v7.43H22Zm0-4.53V20.37l-4.76,13.3Z"/><polygon class="cls-2" points="72.83 88.14 43.22 71.04 43.22 126.35 72.83 135.28 72.83 88.14"/><polygon class="cls-2" points="76.08 88.25 76.08 135.3 105.88 126.34 105.88 71.05 76.08 88.25"/><polygon class="cls-2" points="122.99 125.37 122.12 125.37 125.63 137.61 129.12 125.37 128.25 125.37 129.12 125.37 129.12 76.16 128.25 76.16 127.38 76.16 126.46 76.16 124.72 76.16 123.86 76.16 122.99 76.16 122.12 76.16 122.12 125.37 122.99 125.37"/><polygon class="cls-2" points="112.24 73.42 109.07 70.91 109.07 127.85 76.17 138.48 74.65 138.48 74.35 138.48 72.83 138.48 40.08 129.33 40.08 70.91 36.9 73.42 36.9 131.56 72.68 141.46 74.35 141.46 74.65 141.46 76.32 141.46 109.33 130.98 112.24 130.12 112.24 73.42"/><path class="cls-2" d="M129.13,69.64a3.51,3.51,0,0,0-7,0v3.78h7Z"/><path class="cls-2" d="M46.69,17.18V18.7H45.42V17.14h-.81a4,4,0,0,1-1.32,2.61l-1-.72c1-.85,1.06-1.65,1.06-3,0-.52,0-1,0-1.56l1.11.08a10.48,10.48,0,0,0,2.39-.64l1,1.19c0,.11-.12.16-.19.16a.54.54,0,0,1-.24-.09,26.71,26.71,0,0,1-2.67.35c0,.2,0,.38,0,.58H49v1.1Zm5.09.13V18.7H50.39V17.24h-1a3,3,0,0,1-1.13,1.81h3.46v5.52H50.34a6.54,6.54,0,0,0,3,1l-.89,1.33a15.47,15.47,0,0,1-3.83-1.62c.27-.26.57-.45.83-.72H46.23a5.46,5.46,0,0,1,.74.83c0,.1-.1.14-.17.14l-.15,0a13.16,13.16,0,0,1-3.52,1.36l-.77-1.16a5.81,5.81,0,0,0,2.92-1.14H44V19.05h4a7.66,7.66,0,0,1-.7-.46,2.13,2.13,0,0,0,1-2.1c0-.69,0-1.39,0-2.09l1.12.09a8.49,8.49,0,0,0,2.37-.62L52.77,15c0,.06.13.13.13.21s-.15.13-.21.13a.62.62,0,0,1-.32-.09c-.95.12-1.9.22-2.86.26,0,.21,0,.41,0,.62h3.84v1.17Zm-1.45,2.75H45.24v.57h5.09Zm0,1.46h-5.1v.55h5.1Zm0,1.45h-5.1v.57h5.1Z"/><path class="cls-2" d="M61.17,26c-.37-.41-.71-.85-1.08-1.24,1.9-.54,3.66-1.31,3.66-4a3.71,3.71,0,0,0-2.52-3.84c-.32,2.44-1,6.32-2.86,7.76a1.87,1.87,0,0,1-1.12.45A1.81,1.81,0,0,1,56,24.3a5,5,0,0,1-.77-2.89c0-3.45,2.45-5.89,5.32-5.89,2.65,0,4.81,1.84,4.81,5.13A5.13,5.13,0,0,1,61.17,26Zm-4.24-6.5a5.49,5.49,0,0,0-.34,1.93c0,.58.11,2.07.78,2.07.25,0,.45-.27.59-.45,1.14-1.35,1.62-4.24,1.74-6.09A4.36,4.36,0,0,0,56.93,19.48Z"/><path class="cls-2" d="M67.65,16.49V15.21h4.22V13.83l1.51.1c.09,0,.2,0,.2.17s-.13.21-.21.24v.87h4.36v1.28Zm7.73,10.24-.91-1.15c.84-.17,1.57-.28,1.57-1.5V21.49H69.4V26.4H68v-6h9.43v3.77A2.23,2.23,0,0,1,75.38,26.73Zm-5.94-6.87V17h6.49v2.89Zm.77,5.38V22.13h5v3.11ZM74.57,18H70.75v.87h3.82ZM74,23.13H71.48v1.06H74Z"/><path class="cls-2" d="M82.58,26a1.29,1.29,0,0,1-.94-.41c-1-1.07-1.37-3.09-1.41-4.64a22.67,22.67,0,0,1,.24-3.87c.06-.5.12-1,.2-1.46a9.68,9.68,0,0,1,1.71.63.17.17,0,0,1,.09.15.31.31,0,0,1-.25.28,14.64,14.64,0,0,0-.46,2.84,13.49,13.49,0,0,0,0,1.8,7.1,7.1,0,0,0,.3,1.88c.08.26.26.91.56.9.58,0,1.3-1.88,1.55-2.46l.76,1.8C84.54,24.37,83.54,26,82.58,26Zm5.89-2.29a12.9,12.9,0,0,0-2-5.95c.5-.24,1-.52,1.46-.74A15.2,15.2,0,0,1,90,23C89.51,23.24,89,23.48,88.47,23.7Z"/><path class="cls-2" d="M98.66,15.58a19.43,19.43,0,0,1-1.46,2.65H98v1.14H96.43c-.18.22-.35.45-.54.67h1.67v1a13.18,13.18,0,0,1-1.31,1.38v.35c.66-.11,1.34-.23,2-.38l-.1,1.3c-.61.17-1.22.26-1.82.39v.83a2,2,0,0,1-1.71,2.2l-.89-1c1-.29,1.26-.49,1.26-1.77l-1.64.36c0,.09-.09.24-.17.24s-.11-.05-.14-.12l-.55-1.44c.82-.1,1.64-.24,2.45-.4,0-.45,0-.91,0-1.37l.74.05a3.88,3.88,0,0,0,.46-.64H95a9.78,9.78,0,0,1-2.14,1.63l-.83-1a9.74,9.74,0,0,0,2.82-2.29H92.33V18.18h2V17H92.8V15.68h1.55V13.93l1.43.12a.14.14,0,0,1,.15.14.32.32,0,0,1-.18.26v1.24h1.74l-.83.81a19.09,19.09,0,0,0,.8-2.11l1.32.8a.31.31,0,0,1,.14.23C98.92,15.58,98.75,15.59,98.66,15.58Zm-2.94,1.36V18.2a13.08,13.08,0,0,0,.75-1.26Zm7,9.84a10.53,10.53,0,0,1-2.09-2.35,9.17,9.17,0,0,1-3,2.5l-.88-1.09a6.23,6.23,0,0,0,3-2.62,13.65,13.65,0,0,1-.94-2.81,6.71,6.71,0,0,1-.49.77l-.83-.9a16,16,0,0,0,1.91-6.35l1.53.48a.27.27,0,0,1,.16.23c0,.13-.18.24-.27.27-.17.67-.35,1.34-.55,2h3v1.26h-.67a13.65,13.65,0,0,1-1.24,5.08,8.47,8.47,0,0,0,2.3,2.39Zm-2.82-8.62-.12.31a16.23,16.23,0,0,0,.83,3.33,14.29,14.29,0,0,0,.68-3.64Z"/><path class="cls-2" d="M112.91,16.56c.74.86,1.52,1.67,2.22,2.56l-1.09,1a11.6,11.6,0,0,0-1-1.24c-2.48.23-5,.3-7.48.45L105.3,18h1.24a.67.67,0,0,0,.47-.2,7,7,0,0,0,.94-1.2h-3V15.35h4.41V13.9L111,14c.09,0,.15.1.15.2s-.17.24-.25.28v.86h4.45v1.21Zm-1,10.21-.88-1.05c.81-.14,1.31-.29,1.31-1.38h-4.62v2.32h-1.36V19.8h7.39v4.82A1.88,1.88,0,0,1,112,26.77Zm-4.2-5.9v.64h4.63v-.64Zm4.64,1.68h-4.64v.69h4.64Zm-2.39-6c-.51.48-1,1-1.53,1.45,1.22,0,2.45-.12,3.67-.19-.22-.2-.42-.43-.63-.64.35-.19.7-.39,1-.62Z"/><path class="cls-2" d="M126.87,21a.34.34,0,0,1-.18-.07c-.87.29-2.55.95-3.34,1.32V24.4h-1.43c0-.2,0-.41,0-.65V23c-1,.45-1.45,1-1.45,1.68s.55.86,1.65.86a10.65,10.65,0,0,0,3.51-.57l-.05,1.65a10,10,0,0,1-3,.41c-2.37,0-3.55-.74-3.55-2.26a2.81,2.81,0,0,1,1-2,9.29,9.29,0,0,1,1.83-1.21c0-.63-.22-1-.57-1a1.76,1.76,0,0,0-1.24.54,12.83,12.83,0,0,0-.93,1c-.45.49-.72.83-.89,1-.22-.25-.56-.63-1-1.16a10.18,10.18,0,0,0,3-3.82c-.64.09-1.36.15-2.12.19,0-.54-.13-1-.2-1.47a20.67,20.67,0,0,0,2.76-.14,10.86,10.86,0,0,0,.41-2l1.63.37a.18.18,0,0,1,.15.17c0,.08-.06.15-.2.21-.06.24-.16.61-.32,1.09a21.51,21.51,0,0,0,2.25-.52l-.13,1.54c-.66.15-1.55.29-2.66.44a8.45,8.45,0,0,1-.75,1.41,2.62,2.62,0,0,1,.68-.1c.74,0,1.23.5,1.44,1.51,1-.51,2.06-1,3.26-1.56l.55,1.58C127,20.92,127,21,126.87,21Z"/><path class="cls-2" d="M52.73,42.23A17,17,0,0,0,51.08,41a7.44,7.44,0,0,1-2.48,3.56l-1.25-.83a6.13,6.13,0,0,0,2.46-3.39,8.87,8.87,0,0,0-2.26-.85A14.31,14.31,0,0,1,47,41c-.52,1.17-1.17,2.36-2.4,2.36-1,0-1.72-1-1.72-2.2a3.05,3.05,0,0,1,2.23-3A5.23,5.23,0,0,1,46.55,38a22.89,22.89,0,0,0,.88-3.47L44.86,35l-.28-1.69h.14a16.3,16.3,0,0,0,4.06-.53c.18.24.39.46.59.68-.25.89-.53,1.77-.79,2.66-.21.68-.4,1.35-.63,2a8.71,8.71,0,0,1,2.25.73A12.54,12.54,0,0,0,50.6,36c.48.34,1,.66,1.43,1a16.46,16.46,0,0,1-.45,2.54,15.55,15.55,0,0,1,1.83,1.07C53.2,41.13,53,41.69,52.73,42.23Zm-8.52-1.17c0,.37.13.69.46.69a.6.6,0,0,0,.5-.27,7.54,7.54,0,0,0,1-2.15C45.31,39.41,44.21,39.83,44.21,41.06Z"/><path class="cls-2" d="M61.69,44.41c-1.61,0-1.49-1.71-1.49-3V40.05c0-.39,0-.87-.43-.87a1.28,1.28,0,0,0-.33.06c-1.81.53-2.5,3.33-3.07,5.1L55,43.54c.5-1.37,1-2.7,1.62-4s1.26-3,1.92-4.51c.36-.84.7-1.68,1.08-2.5a12.1,12.1,0,0,1,1.52.78.15.15,0,0,1,.09.14.19.19,0,0,1-.21.17c-.81,1.41-1.53,2.89-2.27,4.34l-.21.39a3.38,3.38,0,0,1,1.6-.53c1.17,0,1.54.9,1.54,2.11,0,.72,0,1.43,0,2.15,0,.36,0,.86.46.86A2.58,2.58,0,0,0,63.59,42a8.38,8.38,0,0,0,1.23-1.83c.19.67.38,1.32.56,2A4.52,4.52,0,0,1,61.69,44.41Z"/><path class="cls-2" d="M72.92,35.24c-.59.16-1.17.31-1.77.42a28.51,28.51,0,0,1-2.63,6.61c-.44-.23-.89-.49-1.32-.76a23.12,23.12,0,0,0,2.41-5.68,12,12,0,0,1-1.8.15c-.06-.49-.13-1-.19-1.49a4.79,4.79,0,0,0,.66,0A10.55,10.55,0,0,0,70,34.4,15.27,15.27,0,0,0,70.29,32c.56.08,1.12.15,1.67.28-.14.65-.28,1.31-.48,2a10.75,10.75,0,0,0,1.45-.49C72.93,34.22,72.92,34.73,72.92,35.24Zm3.37,8.62a9.94,9.94,0,0,0-1.6-1.45c0,.15,0,.31,0,.46-.05,1.45-1,1.85-2.08,1.85a3.41,3.41,0,0,1-1.14-.19,2.12,2.12,0,0,1-1.42-2,2.1,2.1,0,0,1,2.2-2.14,6.71,6.71,0,0,1,1,.08c0-.66,0-1.32,0-2a3.14,3.14,0,0,1,.18-1h1.09c.07,0,.42-.06.42.11a.11.11,0,0,1,0,.06,1.72,1.72,0,0,0-.25.86c0,.74,0,1.48,0,2.22a8.93,8.93,0,0,1,2.56,1.68C76.93,42.94,76.62,43.42,76.29,43.86Zm-3-2a2,2,0,0,0-.87-.16c-.46,0-1,.14-1.06.81s.67.94,1.14.94.78-.1.8-.7C73.31,42.42,73.3,42.12,73.29,41.83Zm3.22-4.72a7.52,7.52,0,0,0-2.93-1.62l.7-1.41a7.53,7.53,0,0,1,3,1.62Z"/><path class="cls-2" d="M82.13,44.29l-1.33.15A17.93,17.93,0,0,1,80.16,39a33.78,33.78,0,0,1,.64-6.11l1.06.24a3.3,3.3,0,0,1,.52.13.18.18,0,0,1,.14.19.2.2,0,0,1-.2.18A27.6,27.6,0,0,0,81.61,40c0,.52,0,1,0,1.54.22-.65.43-1.31.66-2l.91.84A13.21,13.21,0,0,0,82.13,44.29ZM90,43.88a10.31,10.31,0,0,1-2.22.12c-1.74,0-3.37-.33-3.58-3,.41-.3.82-.62,1.24-.92,0,1.49.71,2.16,1.85,2.2A8,8,0,0,0,90,42C90,42.62,90,43.24,90,43.88Zm-.3-8a9.23,9.23,0,0,0-2.82-.17,13.15,13.15,0,0,0-2,.33c-.05-.52-.08-1.15-.15-1.67A15.19,15.19,0,0,1,87.55,34a10.45,10.45,0,0,1,2.3.12C89.8,34.73,89.77,35.31,89.71,35.88Z"/></g></g></svg>