<svg xmlns="http://www.w3.org/2000/svg" viewBox="0 0 164.33 164.33"><defs><style>.cls-1{fill:#d39200;}.cls-2{fill:#fff;}</style></defs><g id="レイヤー_2" data-name="レイヤー 2"><g id="Layer_1" data-name="Layer 1"><rect class="cls-1" width="164.33" height="164.33"/><path class="cls-2" d="M14.09,20.48a24.1,24.1,0,0,1-2.47,1c-1.09.36-1.77.61-2,.74V17.74a26.32,26.32,0,0,0,3.19-1.55,10.89,10.89,0,0,0,2.65-1.9h4.68V45.63h-6Z"/><path class="cls-2" d="M23.42,41.41,31,29.69l.46-.7a30.72,30.72,0,0,0,2.17-3.69A7.66,7.66,0,0,0,34.32,22a3.83,3.83,0,0,0-.58-2.3,1.92,1.92,0,0,0-1.66-.79,2.28,2.28,0,0,0-2.24,1.23,7.64,7.64,0,0,0-.62,3.41V25h-5.8V23.46a10.81,10.81,0,0,1,2.06-7C26.86,14.76,29,13.91,32,13.91q4.07,0,6.17,2.14a8.33,8.33,0,0,1,2.11,6.1,10.38,10.38,0,0,1-.54,3.36,15.1,15.1,0,0,1-1.28,2.83c-.49.82-1.25,2-2.28,3.52l-6,9h9.32v4.72h-16Z"/><path class="cls-2" d="M124.06,85.28c-7.29-5.76-17-5.88-20.49-5l-.41.1c-4.08,1-10.57,2.56-18.17,12,0,0-.09.1-.13.16l-.09.11a.62.62,0,0,0-.13.37.65.65,0,0,0,.08.31l.18.29c.95,1.6,2.16,3.65,3.17,5.54l0,.06a.66.66,0,0,0,.58.36.65.65,0,0,0,.45-.18l.14-.2c6.74-9.32,12-10.61,15.63-11.45l.43-.1a19.61,19.61,0,0,1,14,3.61c4,3.15,6,8.16,6,14.89,0,11.29-5.49,15.7-10.09,17.42-7.14,2.67-14-.9-14-.93l-.3-.15c-3.92-1.7-9.77-5.24-15.29-16.32C74.55,83.8,65.25,81.7,59.1,80.31l-.33-.08c-2.8-.63-12.53-1.08-20.17,5-4,3.19-8.76,9.39-8.76,20.8,0,7,1.43,11.55,5.1,16.38.81,1.1,9,11.68,25,8.63a24,24,0,0,0,9.79-4.55l3.51,3.16a.57.57,0,0,0,.8,0,.56.56,0,0,0,.14-.38v-.05l2.53-15.54v-.17a.55.55,0,0,0-.19-.42.52.52,0,0,0-.37-.14H76l-.16,0-14.89,4.17-.27,0a.46.46,0,0,0-.28.17.56.56,0,0,0,0,.81l.17.16,3.34,3a15.67,15.67,0,0,1-5.47,2.31C47,125.83,41.28,118.29,41.06,118l-.08-.11c-2.67-3.51-3.58-6.5-3.58-11.83,0-6.75,2-11.76,5.91-14.89A19.11,19.11,0,0,1,57.1,87.6l.33.08c5,1.14,11.95,2.7,21.46,21.81,4.94,9.92,11.13,16.41,18.92,19.83a27.42,27.42,0,0,0,11.86,2.75,23.64,23.64,0,0,0,8.26-1.46c4.51-1.69,15-7.45,15-24.51,0-11.41-4.83-17.62-8.88-20.82"/><path class="cls-2" d="M65.11,25.1a10.87,10.87,0,0,1-2.24.52c-.37-.45-.72-.93-1.12-1.34a17.13,17.13,0,0,0,2.88-.66c1.39-.49,2.7-1.4,2.7-3.3s-1-2.48-2.44-2.48c-2,0-3.9,1.43-5.88,1.92-.06-.2-.61-1.78-.61-1.85s.19-.08.27-.08a10.63,10.63,0,0,0,3-.74,11.62,11.62,0,0,1,3.66-.77A3.58,3.58,0,0,1,69,20.18C69,23.11,67.32,24.37,65.11,25.1Z"/><path class="cls-2" d="M78,26.38a23.06,23.06,0,0,0-3.63-4.1,12.8,12.8,0,0,0-1-.92,2.75,2.75,0,0,1-.6-.53,1.22,1.22,0,0,1-.23-.76,1.64,1.64,0,0,1,.55-1.2c.58-.62,1.18-1.2,1.75-1.83.85-1,1.7-1.92,2.52-2.93l1,.87a2.57,2.57,0,0,1,.4.34.16.16,0,0,1,.06.13c0,.19-.27.22-.4.19-.79.76-1.61,1.51-2.42,2.29-.34.32-.65.67-1,1a5.22,5.22,0,0,0-.48.46.88.88,0,0,0-.29.56.54.54,0,0,0,.21.43c.51.48,1.08.89,1.6,1.34a23.88,23.88,0,0,1,3.2,3.45C78.78,25.57,78.37,26,78,26.38Z"/><path class="cls-2" d="M87.06,26.06c-1,0-2.62-.41-2.62-1.89a1.64,1.64,0,0,1,1.74-1.54,1.79,1.79,0,0,1,1.67,1.27,4.08,4.08,0,0,1,.12.78,2.16,2.16,0,0,0,1.54-2.09,2,2,0,0,0-2.11-2.15c-1.82,0-2.87,1.67-4,3.07-.37-.38-.75-.76-1.12-1.15a29.5,29.5,0,0,0,4.57-5.94c-1,.22-1.93.41-2.89.6l-.26-1.66h.38a12.19,12.19,0,0,0,1.6-.14,20.42,20.42,0,0,0,2.21-.39c.25-.06.51-.16.76-.24.28.38.56.75.83,1.13a3.47,3.47,0,0,0-.36.31,10,10,0,0,0-.78.94c-.58.76-1.13,1.55-1.68,2.33a4.11,4.11,0,0,1,1.11-.13A3,3,0,0,1,91,22.35C91,25,89.05,26.06,87.06,26.06Zm-1-2.3a.33.33,0,0,0-.38.38c0,.52.69.59,1,.59C86.6,24.33,86.48,23.76,86,23.76Z"/><path class="cls-2" d="M104.52,26.85a9.82,9.82,0,0,1-3.7-1.46l.74-.83H98.23l.71.78a.17.17,0,0,1-.15.18.36.36,0,0,1-.22-.07,10.35,10.35,0,0,1-3.31,1.36l-.9-1.2a5.88,5.88,0,0,0,3-1.05H96V19.29h7.84v5.27h-1.43a7.31,7.31,0,0,0,3.07.92Zm-10.09-8v-1.1h4.69v-.44H95.78v-1h3.34v-.46H95V14.67h4.11v-1.1l1.48.1a.18.18,0,0,1,.2.17.27.27,0,0,1-.2.24v.59h4.22v1.17h-4.25v.46h3.3v1h-3.3v.44h4.7v1.1Zm8,1.38H97.28v.48h5.13Zm0,1.37H97.28v.5h5.15Zm0,1.41H97.28v.5h5.15Z"/><path class="cls-2" d="M111.62,14.78c-.34.93-.7,1.86-1.11,2.75v9h-1.4V19.8a5.11,5.11,0,0,1-.88,1.25L107.35,20a14.5,14.5,0,0,0,2.87-6.27l1.6.66a.2.2,0,0,1,.12.17C111.94,14.7,111.71,14.77,111.62,14.78Zm4.09,5.88v4.23h2.82v1.27h-7.07V24.89h2.79V20.66h-3V19.41h3V16.59c-.8.12-1.61.22-2.4.31l-.55-1.24a16.08,16.08,0,0,0,6-1.53l1.08,1.57a.2.2,0,0,1-.21.17.39.39,0,0,1-.21-.09c-.76.21-1.51.41-2.28.55v3.08h3.09v1.25Z"/><path class="cls-2" d="M64.83,43.3a11.11,11.11,0,0,1-2.25.52c-.37-.45-.72-.93-1.12-1.34a16.31,16.31,0,0,0,2.89-.66c1.38-.5,2.7-1.4,2.7-3.3S66.07,36,64.61,36c-2,0-3.91,1.42-5.89,1.92,0-.2-.6-1.78-.6-1.85s.18-.08.27-.08a10.72,10.72,0,0,0,3-.74,11.3,11.3,0,0,1,3.66-.77,3.58,3.58,0,0,1,3.62,3.86C68.67,41.31,67,42.57,64.83,43.3Z"/><path class="cls-2" d="M76.82,43.45a1.84,1.84,0,0,1-1.36.43,2.87,2.87,0,0,1-1.18-.27c0-.55-.08-1.08-.15-1.62a2.69,2.69,0,0,0,1.33.41c1,0,1-3.19,1-4,0-.58,0-1.62-.67-1.62a3.8,3.8,0,0,0-.73.11,27.4,27.4,0,0,1-2.57,7c-.47-.23-.91-.52-1.38-.76a20,20,0,0,0,2.44-6c-.56.11-1.11.24-1.66.39,0-.18-.35-1.48-.35-1.53a.06.06,0,0,1,.06-.06c.11,0,.21,0,.32,0a11.57,11.57,0,0,0,1.93-.24,25.67,25.67,0,0,0,.43-3.37c.39.1.75.21,1.12.32a3.24,3.24,0,0,1,.47.16c.06,0,.15.06.15.14s-.1.16-.16.18c-.15.81-.3,1.61-.5,2.38.24,0,.48-.06.72-.06a1.44,1.44,0,0,1,1.6,1.19,7.71,7.71,0,0,1,.23,2.15C77.87,40.1,77.69,42.61,76.82,43.45Zm3-2.66c-.27-.41-.56-.79-.85-1.18.35-.06,1.23-.27,1.23-.81,0-.93-1.16-2.55-1.74-3.17l1.27-.82a8,8,0,0,1,2,4.22C81.74,40.16,80.55,40.54,79.82,40.79Z"/><path class="cls-2" d="M87.12,44.91c-.45-.41-.89-.83-1.36-1.2a5.83,5.83,0,0,0,3.47-2.45,4.47,4.47,0,0,0,.48-2.07c0-1.26-.42-2-1.54-2a10,10,0,0,0-3.41,1.51c-.09-.21-.66-1.67-.66-1.79s.11-.09.16-.09a8,8,0,0,0,1.5-.4,8.23,8.23,0,0,1,2.81-.73c1.93,0,2.77,1.53,2.77,3.63A6,6,0,0,1,87.12,44.91Zm2.11-10.16a17.79,17.79,0,0,0-3.41-1.28c.23-.5.45-1,.68-1.52A13.92,13.92,0,0,1,90,33.23C89.76,33.74,89.51,34.25,89.23,34.75Z"/><path class="cls-2" d="M104.38,45.05a10,10,0,0,1-3.7-1.46l.73-.83H98.08l.72.78a.18.18,0,0,1-.16.18.51.51,0,0,1-.22-.07A9.84,9.84,0,0,1,95.12,45l-.91-1.19a5.89,5.89,0,0,0,3-1.05H95.82V37.49h7.84v5.27h-1.44a7.31,7.31,0,0,0,3.08.92Zm-10.1-8V36H99v-.44H95.64v-1H99V34H94.85V32.87H99v-1.1l1.48.1a.18.18,0,0,1,.19.17.26.26,0,0,1-.19.24v.59h4.22V34h-4.25v.46h3.3v1h-3.3V36h4.7v1.1Zm8,1.38H97.13v.48h5.14Zm0,1.37H97.13v.51h5.15Zm0,1.41H97.13v.51h5.15Z"/><path class="cls-2" d="M111.34,33c-.34.93-.7,1.86-1.11,2.75v9h-1.4V38a5.31,5.31,0,0,1-.88,1.25l-.88-1.07a14.5,14.5,0,0,0,2.87-6.27l1.6.66a.21.21,0,0,1,.13.17C111.67,32.9,111.43,33,111.34,33Zm4.09,5.88v4.23h2.82v1.27h-7.07V43.09H114V38.86h-3V37.61h3V34.79c-.8.12-1.61.22-2.4.31L111,33.86a16,16,0,0,0,6-1.53l1.09,1.57a.19.19,0,0,1-.2.16.42.42,0,0,1-.22-.08,22.9,22.9,0,0,1-2.28.55v3.08h3.09v1.25Z"/></g></g></svg>