<svg xmlns="http://www.w3.org/2000/svg" viewBox="0 0 164.33 164.33"><defs><style>.cls-1{fill:#28a838;}.cls-2{fill:#fff;}</style></defs><g id="レイヤー_2" data-name="レイヤー 2"><g id="Layer_1" data-name="Layer 1"><rect class="cls-1" width="164.33" height="164.33"/><path class="cls-2" d="M14,20.48a23.09,23.09,0,0,1-2.47,1c-1.08.36-1.77.61-2,.74V17.74a25.62,25.62,0,0,0,3.19-1.55,10.89,10.89,0,0,0,2.65-1.9H20V45.63H14Z"/><path class="cls-2" d="M26.55,45a5.77,5.77,0,0,1-2.44-3.23,17.55,17.55,0,0,1-.66-5.22h5.81a11,11,0,0,0,.5,3.92,1.91,1.91,0,0,0,2,1.22,1.93,1.93,0,0,0,1.7-.77,4.35,4.35,0,0,0,.68-2.11c.09-.89.14-2.17.14-3.85a13,13,0,0,0-.53-4.27,2.07,2.07,0,0,0-2.14-1.42c-1.4,0-2.28.95-2.67,2.83H23.76l.43-17.8H38.62v5.15H29.1l-.35,6.92a4,4,0,0,1,1.86-1.1,8.68,8.68,0,0,1,2.82-.44,5.34,5.34,0,0,1,4.84,2.59,13.72,13.72,0,0,1,1.62,7.27,24.29,24.29,0,0,1-.65,6.17,7,7,0,0,1-2.5,3.87,8.45,8.45,0,0,1-5.24,1.41A9.14,9.14,0,0,1,26.55,45Z"/><rect class="cls-2" x="62.76" y="111.24" width="5.59" height="12.75" rx="0.37"/><path class="cls-2" d="M121.41,129.16H41.24a.37.37,0,0,0-.36.37v4.9a.36.36,0,0,0,.36.36h80.17a.37.37,0,0,0,.37-.36v-4.9a.38.38,0,0,0-.37-.37"/><path class="cls-2" d="M121.41,138.89H41.24a.36.36,0,0,0-.36.36v4.92a.36.36,0,0,0,.36.36h80.17a.37.37,0,0,0,.37-.36v-4.92a.37.37,0,0,0-.37-.36"/><path class="cls-2" d="M106.15,97.94a11.79,11.79,0,0,0-6.93-2.62,9.27,9.27,0,0,0-6.44,2.74.67.67,0,0,0-.21.5V99a.71.71,0,0,0,.23.55.63.63,0,0,0,.56.13l.15,0a1,1,0,0,0,.4-.26,6.53,6.53,0,0,1,3.21-.66,12.1,12.1,0,0,1,8.26,3.46l.08.06a.94.94,0,0,0,.69.29.92.92,0,0,0,.68-.28l.07-.07a12.15,12.15,0,0,1,8.27-3.46,6.55,6.55,0,0,1,3.22.66,1.08,1.08,0,0,0,.44.28,1,1,0,0,0,.47,0,.68.68,0,0,0,.51-.66v-.39a.68.68,0,0,0-.22-.49,9.28,9.28,0,0,0-6.52-2.81,11.74,11.74,0,0,0-6.92,2.62"/><path class="cls-2" d="M101.18,66a.66.66,0,0,0-.35.43l-.08.26a.73.73,0,0,0,.1.61.68.68,0,0,0,.5.27.33.33,0,0,0,.1,0,.78.78,0,0,0,.39-.1,2.4,2.4,0,0,1,.48,0,7,7,0,0,1,5.73,3.74l0,0a.8.8,0,0,0,.51.41,1,1,0,0,0,.26,0,.88.88,0,0,0,.4-.1l0,0a8,8,0,0,1,3.58-.88,5.44,5.44,0,0,1,3.65,1.17,1,1,0,0,0,.27.3,1.51,1.51,0,0,0,.26.12l.12,0h.07a.72.72,0,0,0,.32-.08.69.69,0,0,0,.34-.41l.07-.24a.64.64,0,0,0,0-.2.59.59,0,0,0-.1-.34,6,6,0,0,0-5.43-3.27,8.52,8.52,0,0,0-2.89.54,7,7,0,0,0-5.41-3,6.74,6.74,0,0,0-3,.76"/><path class="cls-2" d="M84.24,78.32l0,.36a.68.68,0,0,0,.32.54.68.68,0,0,0,.54.08l.12,0a.87.87,0,0,0,.35-.25,5.77,5.77,0,0,1,3-.7A9.91,9.91,0,0,1,95,80.71l.06.06a.93.93,0,0,0,.62.23h.06a.9.9,0,0,0,.62-.3l.06-.06a9.62,9.62,0,0,1,7-3.25,4.86,4.86,0,0,1,2.09.38,1,1,0,0,0,.41.22,1.15,1.15,0,0,0,.3,0l.17,0a.69.69,0,0,0,.45-.69l0-.32a.68.68,0,0,0-.24-.47,7.87,7.87,0,0,0-5.13-2,9.58,9.58,0,0,0-6,2.48,10,10,0,0,0-5.35-1.77,7.63,7.63,0,0,0-5.68,2.62.72.72,0,0,0-.19.52"/><path class="cls-2" d="M43.67,84.75a8.69,8.69,0,0,1,8.69-8.69c.19,0,.37,0,.56,0A11.75,11.75,0,0,1,76.39,77a11.62,11.62,0,0,1-1.19,5.13,13.14,13.14,0,0,1-2.85,26L54.82,108h0a9.3,9.3,0,0,1-6.77-15.68A8.69,8.69,0,0,1,43.67,84.75Z"/><path class="cls-2" d="M71.53,27c-.34-.41-.65-.86-1-1.27,1.74-.55,3.34-1.34,3.34-4.09,0-1.86-.86-3.55-2.29-3.93-.3,2.5-.89,6.48-2.61,8a1.28,1.28,0,0,1-2.2-.38,5.62,5.62,0,0,1-.71-3c0-3.54,2.24-6,4.85-6,2.42,0,4.39,1.89,4.39,5.26C75.31,24.73,73.7,26.38,71.53,27Zm-3.88-6.66a6.55,6.55,0,0,0-.3,2c0,.59.1,2.13.71,2.13.22,0,.41-.28.54-.47,1-1.38,1.48-4.35,1.59-6.24A4.17,4.17,0,0,0,67.65,20.38Z"/><path class="cls-2" d="M77.83,27.51V26.38h2.7a10.19,10.19,0,0,0-.58-1c.18-.13.38-.24.57-.35h-1.3V22.23h7.52v2.84H85.33l.52.21a.18.18,0,0,1,.12.15c0,.15-.16.2-.25.2-.15.24-.28.51-.42.75h2.82v1.13Zm.07-5.74V20.63H88v1.14Zm1-1.65V15.76h2.33V14.68l1.28.1a.18.18,0,0,1,.19.17.26.26,0,0,1-.2.23v.58h1V14.68l1.26.1a.17.17,0,0,1,.19.17.24.24,0,0,1-.19.23v.58h2.39v4.36Zm2.36-3.28H80.14v.68h1.08Zm0,1.63H80.14v.7h1.09Zm4.16,4.75H80.52v.85h4.87Zm-4,1.85c.13.43.29.86.39,1.31H84l.37-1.31Zm2-8.23h-1v.68h1Zm0,1.63h-1v.7h1Zm2.31-1.63H84.69v.68h1.09Zm0,1.63H84.69v.7h1.09Z"/><path class="cls-2" d="M96,26.26a1.81,1.81,0,0,1-1.34.43,2.86,2.86,0,0,1-1.17-.27c0-.55-.07-1.08-.14-1.61a2.74,2.74,0,0,0,1.31.4c1,0,1-3.17,1-3.95,0-.58,0-1.62-.67-1.62a2.93,2.93,0,0,0-.71.12,27.55,27.55,0,0,1-2.53,7c-.46-.23-.9-.52-1.36-.76a19.5,19.5,0,0,0,2.39-6c-.54.11-1.09.24-1.62.39,0-.18-.35-1.47-.35-1.52s0-.06.07-.06.2,0,.3,0a11.1,11.1,0,0,0,1.9-.24,23.8,23.8,0,0,0,.43-3.35c.38.09.74.21,1.1.32a2.57,2.57,0,0,1,.47.15c.06,0,.14.06.14.14s-.1.16-.16.19c-.14.8-.29,1.59-.49,2.37a5.51,5.51,0,0,1,.71-.07,1.43,1.43,0,0,1,1.58,1.19A8,8,0,0,1,97,21.68C97,22.93,96.83,25.42,96,26.26Zm2.94-2.64c-.26-.41-.54-.79-.83-1.18.34-.06,1.21-.27,1.21-.8,0-.93-1.14-2.54-1.7-3.16.41-.27.82-.55,1.24-.81a8,8,0,0,1,2,4.19C100.82,23,99.65,23.36,98.92,23.62Z"/><path class="cls-2" d="M108.44,18.75c.75,1.45,1.44,2.93,2.14,4.42l-1,1a4.45,4.45,0,0,0-3-1.47c-.7,0-1.64.32-1.64,1.35,0,1.42,1.49,1.55,2.37,1.55a9.86,9.86,0,0,0,2-.22c0,.53,0,1-.09,1.54a11.61,11.61,0,0,1-1.86.11c-1.66,0-3.85-.32-3.85-2.87,0-2.07,1.56-2.64,3-2.64a5.78,5.78,0,0,1,1.91.37c-.2-.5-.44-1-.67-1.46s-.38-.79-.59-1.17a16,16,0,0,1-3.57.91c-.15-.5-.35-1-.51-1.46a10.63,10.63,0,0,0,3.36-.71,17.51,17.51,0,0,0-1.15-2,.18.18,0,0,1-.16-.17.17.17,0,0,1,.1-.15c.44-.21.9-.36,1.34-.52.45.73.81,1.5,1.21,2.28A13.41,13.41,0,0,0,110,16.08c.24.5.44,1,.66,1.5A13.57,13.57,0,0,1,108.44,18.75Z"/><path class="cls-2" d="M60.48,39.41v2.71c0,2.21-.62,3-2.48,3.31l-.85-1.18c1.34-.2,1.92-.4,1.92-2.15,0-.9,0-1.79,0-2.69H52.78V38.09h6.27v-2l1.43.1c.08,0,.21,0,.21.17a.28.28,0,0,1-.21.24v1.5h3.1v1.32Zm1.18-2.15V35.42h-7v1.82H53.29V34.11h4v-1.7l1.5.11a.16.16,0,0,1,.18.17.28.28,0,0,1-.19.23v1.19h4.24v3.15ZM56.6,43.37a21,21,0,0,0-2.36-2.45c.34-.36.67-.76,1-1.13a33,33,0,0,1,2.27,2.58Z"/><path class="cls-2" d="M69.62,45.26A6.19,6.19,0,0,0,69,44.11s-.06-.09-.06-.13.06,0,.09-.07a10.71,10.71,0,0,0,1.78-.23c1.26-.32,2.4-1,2.4-2.69a1.76,1.76,0,0,0-2-1.94A4.08,4.08,0,0,0,68,41c-.48.64-.92,1.3-1.34,2l-1.23-1.12a42.14,42.14,0,0,0,3.46-4.75,12.63,12.63,0,0,0,1-1.87l-.94.26c-.57.15-1.15.32-1.72.45-.09-.55-.18-1.1-.28-1.65a26.9,26.9,0,0,0,4-.69,5.35,5.35,0,0,0,.83-.27,9.39,9.39,0,0,1,.76,1.2c0,.14-.15.18-.23.2A23.84,23.84,0,0,0,69.88,38a5.85,5.85,0,0,1,1.57-.24,3.11,3.11,0,0,1,3.29,3.43C74.74,44.18,71.7,45.15,69.62,45.26Z"/><path class="cls-2" d="M80.55,45.61c-.45-.4-.89-.83-1.36-1.19A5.83,5.83,0,0,0,82.66,42a4.43,4.43,0,0,0,.47-2.07c0-1.25-.41-2-1.53-2a9.92,9.92,0,0,0-3.41,1.51c-.09-.22-.67-1.67-.67-1.79s.12-.09.17-.09a7.49,7.49,0,0,0,1.5-.41A8.45,8.45,0,0,1,82,36.42c1.93,0,2.77,1.53,2.77,3.63A6,6,0,0,1,80.55,45.61Zm2.11-10.16a17.75,17.75,0,0,0-3.41-1.27c.22-.5.44-1,.67-1.52a13.65,13.65,0,0,1,3.5,1.28C83.18,34.45,82.94,35,82.66,35.45Z"/><path class="cls-2" d="M63.31,22.4a6.65,6.65,0,0,1-1.66.18,2.64,2.64,0,0,1-1.18-.18.26.26,0,0,1-.2.26v1.12h2.52v1.13H60.25v1.3h3v1.15h-7.5V26.21H58.9v-1.3H56.5V23.78h2.36V22.13l1.39.13a1.31,1.31,0,0,1-.41-1.09V19.85H59a4.78,4.78,0,0,1-1.9,3.36l-.79-.62a3,3,0,0,1-1.35,2l-.87-.9v3.89H52.75V15.15h3.78v1.11c-.41.88-.81,1.75-1.24,2.61a3.52,3.52,0,0,1,1.13,2.83,3.07,3.07,0,0,1-.05.53,3.48,3.48,0,0,0,1.37-2.38H56.21v-1.2h2.66V17.42H56.7v-1.2h2.16V14.77l1.42.11a.18.18,0,0,1,.2.17.26.26,0,0,1-.2.24v.93H62.8v1.2H60.26v1.23H63.2v1.2H61.11c0,.26,0,.53,0,.8,0,.65.21.76.73.76A4,4,0,0,0,63.46,21Zm-9.22-6v2.77c.35-.91.69-1.83,1-2.77Zm0,2.93V23.5a2.15,2.15,0,0,0,1.08-2A2.43,2.43,0,0,0,54.09,19.31Z"/><path class="cls-2" d="M119.32,27.31c-1.69,0-3.33-.7-3.36-3,0-.34,0-.68.06-1-.88-.31-2.06-.7-2.08-2a5.19,5.19,0,0,1,.53-1.8c.45.1.91.24,1.36.34a2.61,2.61,0,0,0-.59,1.24c0,.49.7.7,1,.79.2-1.11.41-2.22.61-3.33-.22.27-.42.54-.63.81a23.06,23.06,0,0,0-1.93-1.67c.26-.42.54-.84.83-1.27a17.89,17.89,0,0,1,1.8,1.55,17.55,17.55,0,0,0,.38-2.82c.39.08.79.19,1.18.29l.48.12c.08,0,.17.08.17.19s-.15.29-.23.36c-.09.31-.16.65-.23,1-.15.66-.29,1.33-.45,2-.23,1-.47,2.1-.65,3.16.48.08,1,.08,1.46.13l-.22,1.36a9.7,9.7,0,0,1-1.42-.11,3.23,3.23,0,0,0,0,.62,1.58,1.58,0,0,0,1.75,1.65c1,0,1.49-.64,1.47-1.81a6,6,0,0,0-1.77-3.53,12.58,12.58,0,0,0,1.33-.65,6.6,6.6,0,0,1,2,4.58A2.71,2.71,0,0,1,119.32,27.31Z"/></g></g></svg>