<svg xmlns="http://www.w3.org/2000/svg" viewBox="0 0 164.33 164.33"><defs><style>.cls-1{fill:#970b31;}.cls-2{fill:#fff;}</style></defs><g id="レイヤー_2" data-name="レイヤー 2"><g id="Layer_1" data-name="Layer 1"><rect class="cls-1" width="164.33" height="164.33"/><path class="cls-2" d="M12.87,36.58A10.59,10.59,0,0,1,13.79,32a6.06,6.06,0,0,1,2.75-2.86,7.69,7.69,0,0,1-2.32-2.81,9.39,9.39,0,0,1-.89-4.27,8.35,8.35,0,0,1,2.05-6,7.76,7.76,0,0,1,5.88-2.14A7.69,7.69,0,0,1,27.1,16a8.29,8.29,0,0,1,2,5.92,10.11,10.11,0,0,1-.85,4.41A7.05,7.05,0,0,1,26,29.15a6,6,0,0,1,2.75,2.94,11.26,11.26,0,0,1,.92,4.76,10.38,10.38,0,0,1-2,6.8q-2,2.45-6.38,2.44Q12.86,46.09,12.87,36.58Zm10.42,3.69a9.81,9.81,0,0,0,.52-3.46,10.49,10.49,0,0,0-.52-3.68,2,2,0,0,0-2-1.35,2,2,0,0,0-2,1.37,10.52,10.52,0,0,0-.52,3.66,9.81,9.81,0,0,0,.52,3.46,2,2,0,0,0,2,1.37A2,2,0,0,0,23.29,40.27Zm.18-18.2a5.62,5.62,0,0,0-.55-2.69,1.77,1.77,0,0,0-1.66-1,1.86,1.86,0,0,0-1.7,1A5.27,5.27,0,0,0,19,22.07q0,4.83,2.28,4.83T23.47,22.07Z"/><path class="cls-2" d="M113.49,80.84l-16.78,16a2.8,2.8,0,0,0-1,2.4v44.74a1,1,0,0,0,1,.95H114a1,1,0,0,0,1-.95V81.24c0-.52-.42-1.49-1.51-.4"/><path class="cls-2" d="M65.15,101.64l-16.78,16a2.78,2.78,0,0,0-1,2.39v24a1,1,0,0,0,1,.95H65.7a1,1,0,0,0,1-.95V102c0-.53-.42-1.5-1.51-.4"/><path class="cls-2" d="M121.12,61.48a.48.48,0,0,0-.15-.36.47.47,0,0,0-.31-.14h-.23l-12.84,2.9-.24,0a.5.5,0,0,0-.25.13.49.49,0,0,0,0,.69l.15.15,2.93,2.93L81.07,96.94,67.62,83.49a.38.38,0,0,0-.55,0l-3.64,3.65h0L41.87,108.69a.39.39,0,0,0,0,.55l3.65,3.65a.38.38,0,0,0,.54,0L67.35,91.61l9.76,9.76a.13.13,0,0,0,0,0l3.65,3.64a.38.38,0,0,0,.55,0l33-33,3.08,3.08a.49.49,0,0,0,.83-.32v0l2.82-13.11Z"/><path class="cls-2" d="M89.41,104.44l-8.11,8.18a.39.39,0,0,1-.53,0l-7.35-7.49c-1.35-1.34-1.64-.26-1.64.27v38.56a1,1,0,0,0,1,.95H90.07a1,1,0,0,0,1-.95v-39.2c0-.53-.41-1.49-1.61-.3"/><path class="cls-2" d="M55.85,24.74c-.09,1.69-.58,2.41-2,2.79L53,26.36c1-.2,1.4-.47,1.5-1.72.13-1.76.13-3.55.13-5.33h-.4a23,23,0,0,1-.55,4.85,8,8,0,0,1-1.77,3.43l-1.11-.81a7.53,7.53,0,0,0,.65-.73c-1,.22-2.09.44-3.14.68,0,.11-.08.21-.19.21s-.16-.1-.2-.2l-.51-1.24c.66-.07,1.3-.17,2-.25v-.69H47.72v-1h1.67V23H47.76v-4.1h1.61v-.47H47.72V17.35h1.65v-.58l-1.19.1-.34-.62c-.14.55-.28,1.11-.43,1.67a5.39,5.39,0,0,0-.17.59v9H46V21.21a8.49,8.49,0,0,1-.5.77l-.78-1.17a16.18,16.18,0,0,0,2-6.18l1.42.52a.22.22,0,0,1,.12.17c0,.11-.15.17-.23.19l0,.21a13.36,13.36,0,0,0,3.68-.8l.9,1.4a.15.15,0,0,1-.17.16.33.33,0,0,1-.22-.09c-.51.11-1,.19-1.56.27v.69h1.8v.72H53V14.78l1.35.19c.09,0,.23.07.23.2a.29.29,0,0,1-.17.24c0,.88-.06,1.78-.09,2.67l1.63,0C56,20.28,56,22.51,55.85,24.74Zm-6.43-4.93h-.6v.75h.6Zm0,1.66h-.6v.69h.6Zm1.67-1.66h-.55v.75h.55Zm0,1.66h-.57v.69h.57Zm1.27-2.16v-.85h-1.8v.47h1.58V23H50.58v.48h1.55v1H50.58v.57c.48-.07,1-.17,1.44-.25l-.08.48a13.85,13.85,0,0,0,1.05-6Z"/><path class="cls-2" d="M65.35,20.62a9.76,9.76,0,0,0,1.57,2.51c-.27.41-.55.79-.84,1.17a6.56,6.56,0,0,0-3.26-.85c-.49,0-1.58.24-1.58,1,0,1.24,1.66,1.33,2.42,1.33a13.18,13.18,0,0,0,2.5-.33c-.12.54-.22,1.07-.31,1.61a11.91,11.91,0,0,1-1.77.17c-1.54,0-4.24-.2-4.24-2.62,0-1.77,1.71-2.36,2.95-2.36a8.87,8.87,0,0,1,1.93.25c-.24-.53-.49-1.07-.72-1.61a29.56,29.56,0,0,1-4.39.53L59.3,20a19.57,19.57,0,0,0,4.18-.42c-.14-.43-.28-.85-.4-1.27a18.48,18.48,0,0,1-3.06.43c-.13-.45-.25-.91-.37-1.36A18,18,0,0,0,62.73,17c-.18-.68-.32-1.38-.44-2.08.49,0,1-.1,1.48-.12h0A.17.17,0,0,1,64,15a.32.32,0,0,1-.12.22c.06.47.13.93.23,1.4a6.66,6.66,0,0,0,1.68-.81c.1.53.21,1,.31,1.58-.55.21-1.12.41-1.69.6.13.45.29.88.46,1.32a16.39,16.39,0,0,0,2.83-1.06c.1.54.16,1.08.26,1.6A16.65,16.65,0,0,1,65.35,20.62Z"/><path class="cls-2" d="M76.24,26.29a1.79,1.79,0,0,1-1.36.43,2.82,2.82,0,0,1-1.19-.29c0-.54-.08-1.06-.14-1.59a2.57,2.57,0,0,0,1.33.39c1,0,1-3.17,1-4,0-.58,0-1.61-.68-1.61a3,3,0,0,0-.72.11,27.84,27.84,0,0,1-2.58,7c-.47-.26-.9-.54-1.38-.76a19.49,19.49,0,0,0,2.44-6c-.55.11-1.11.25-1.65.41,0-.16-.35-1.51-.35-1.51s.08-.08.12-.08l.31,0a9.14,9.14,0,0,0,1.87-.25,23.58,23.58,0,0,0,.44-3.36c.36.09.71.2,1.06.32.16,0,.34.1.49.16s.16.08.16.17-.09.13-.14.16c-.15.79-.31,1.59-.5,2.38a5.85,5.85,0,0,1,.72-.07,1.43,1.43,0,0,1,1.6,1.2,8,8,0,0,1,.24,2.14C77.29,23,77.11,25.4,76.24,26.29ZM78,17.41a15.24,15.24,0,0,0-.92-2l1-.47a17.17,17.17,0,0,1,.86,2Zm1.23,6.21c-.27-.41-.56-.79-.84-1.17.35-.07,1.23-.28,1.23-.82,0-.9-1.19-2.53-1.74-3.14a13.74,13.74,0,0,0,1.35-.76c.72.92,1.92,2.93,1.92,4.2C81.15,23,79.93,23.38,79.23,23.62Zm.39-6.71a15.09,15.09,0,0,0-.91-2l.93-.5a13.2,13.2,0,0,1,.91,2Z"/><path class="cls-2" d="M87.41,26.39a1.28,1.28,0,0,1-1-.37c-1.08-1-1.5-3-1.61-4.58a22.87,22.87,0,0,1,.08-3.88c0-.49.07-1,.13-1.46a9.07,9.07,0,0,1,1.74.56.16.16,0,0,1,.09.15.3.3,0,0,1-.23.28A15,15,0,0,0,86.3,20c0,.6,0,1.19.06,1.8a7,7,0,0,0,.37,1.86c.1.27.31.9.61.88.58,0,1.22-1.94,1.44-2.52l.84,1.76C89.3,24.69,88.37,26.33,87.41,26.39Zm5.31-2.52a12.88,12.88,0,0,0-2-6c.49-.23,1-.5,1.47-.72a15.32,15.32,0,0,1,2,6C93.76,23.42,93.24,23.65,92.72,23.87Z"/><path class="cls-2" d="M102.61,27.19c-1.69,0-3.33-.7-3.35-3,0-.33,0-.67.06-1-.88-.31-2.06-.7-2.09-2a5.13,5.13,0,0,1,.54-1.81c.45.1.91.24,1.36.34A2.61,2.61,0,0,0,98.54,21c0,.49.69.71,1,.79.19-1.11.41-2.21.6-3.33l-.62.81a23.06,23.06,0,0,0-1.93-1.67c.26-.42.54-.84.83-1.27a19.27,19.27,0,0,1,1.8,1.55,17.55,17.55,0,0,0,.38-2.82c.39.07.79.19,1.17.29a4.37,4.37,0,0,1,.49.12.2.2,0,0,1,.16.19.56.56,0,0,1-.22.36c-.09.31-.16.65-.23,1-.15.66-.29,1.33-.45,2-.23,1-.47,2.1-.65,3.16.48.08,1,.08,1.46.12l-.22,1.37a9.7,9.7,0,0,1-1.42-.11,3.23,3.23,0,0,0,0,.62,1.57,1.57,0,0,0,1.75,1.65c1,0,1.48-.64,1.47-1.81a6,6,0,0,0-1.77-3.54,10.84,10.84,0,0,0,1.33-.64,6.65,6.65,0,0,1,2,4.58A2.72,2.72,0,0,1,102.61,27.19Z"/><path class="cls-2" d="M46.79,40.91a12.17,12.17,0,0,1-1,3.3l-1-.52a11.75,11.75,0,0,0,.9-3.54l1.09.41a.2.2,0,0,1,.13.2C46.92,40.83,46.84,40.88,46.79,40.91ZM55.55,40a9.19,9.19,0,0,1-3.2-1.89A8.43,8.43,0,0,1,50,39.79L49.5,39l.14.62a7.86,7.86,0,0,1-.94.41l-.19-.74-.31.06v5.67H47V39.53c-.6.07-1.18.17-1.77.24l-.13-1.23a2.76,2.76,0,0,0,.71-.07c.4-.5.77-1,1.13-1.6a7.34,7.34,0,0,0-1.64-.64v-.62a15.85,15.85,0,0,0,2.2-3.38,11.19,11.19,0,0,1,1.23.65c.1,0,.26.14.26.29s-.2.19-.28.19c-.63.73-1.26,1.46-1.94,2.14.25.14.49.29.73.44.23-.37.45-.75.65-1.15.19.12,1.24.77,1.24,1s-.18.19-.28.16c-.67.84-1.34,1.7-2,2.53l1.2-.14a6.08,6.08,0,0,0-.24-.72c.32-.12.64-.27,1-.41.16.47.29.93.42,1.4a8,8,0,0,0,2.07-1.38,12.33,12.33,0,0,1-1.59-2l.78-.8H49.5V33.14h5.57V34.2a9.82,9.82,0,0,1-1.79,3,9.12,9.12,0,0,0,3,1.53C56,39.14,55.8,39.59,55.55,40ZM49,43.17c-.26-.83-.44-1.71-.62-2.57l1-.41a17.94,17.94,0,0,0,.61,2.53Zm.26,1.6V43.6h2.54V41.93H49.88V40.76h1.86V39.17c.32,0,.65.06,1,.11a2,2,0,0,1,.42,0,.15.15,0,0,1,.12.14.27.27,0,0,1-.19.23v1.06h2.06v1.17H53.07V43.6h2.7v1.17ZM51,34.37a8,8,0,0,0,1.26,1.89,6.91,6.91,0,0,0,1.09-1.89Z"/><path class="cls-2" d="M59.93,38.5a20.17,20.17,0,0,0-2-1.4l.86-1.35a10.92,10.92,0,0,1,1.88,1.61Zm-.41,6.17a.55.55,0,0,1,.06.22.12.12,0,0,1-.12.12A14.86,14.86,0,0,1,58,44.09a20.83,20.83,0,0,0,1.6-4.76l1.14,1.07C60.36,41.84,60,43.26,59.52,44.67Zm.7-9.71a17.16,17.16,0,0,0-1.75-1.22l.93-1.36A11,11,0,0,1,61,33.88Zm8.42,4.69a12.05,12.05,0,0,1-1.2-.4V45H66.13V42.63h-3a5.74,5.74,0,0,1-1.58,2.58l-1-.79c1.46-1.24,1.71-3.31,1.71-5.28a9.09,9.09,0,0,1-1.24.43l-.66-1.17a9,9,0,0,0,3.38-1.32,9.94,9.94,0,0,1-1.58-2h-1V33.82h2.8V32.21l1.5.1a.25.25,0,0,1,.22.23c0,.14-.14.21-.24.24v1h3.31v1.23H67.41a8.26,8.26,0,0,1-1.6,2,9.56,9.56,0,0,0,3.48,1.13Zm-2.51.9H63.5c0,.32-.06.66-.11,1h2.74Zm0-1.78a15.31,15.31,0,0,1-1.4-.92,10.62,10.62,0,0,1-1.18.68c0,.31,0,.61,0,.91h2.59ZM63.64,35a5.09,5.09,0,0,0,1.13,1.3,4.75,4.75,0,0,0,1-1.3Z"/><path class="cls-2" d="M81.07,45.07a9.61,9.61,0,0,1-2.67-2.65A7.54,7.54,0,0,1,75.47,45l-1-.95a7.31,7.31,0,0,0,3.18-2.92,15.58,15.58,0,0,1-1.42-5.28H73.31v.07c0,.53,0,1.05,0,1.58h2.85c0,1.08,0,2.17-.16,3.23-.23,1.76-.78,2.31-2.25,2.46L73.09,42c1.46-.17,1.66-.74,1.68-2.38v-1H73.29c0,2-.32,4.82-1.55,6.32l-1.13-.82c1.24-1.43,1.33-3.82,1.33-5.75,0-1.3-.08-2.6-.1-3.9h4.3c-.07-.84-.09-1.71-.11-2.55l1.57.2c.09,0,.26.06.26.2a.4.4,0,0,1-.23.3c0,.35,0,.67,0,1s0,.56,0,.83h3.86v1.34h-3.8a15.28,15.28,0,0,0,.74,3.76,13.67,13.67,0,0,0,.84-3.09l1.51.95a.34.34,0,0,1,.14.26c0,.16-.24.21-.33.23a17,17,0,0,1-1.32,3.19,8.36,8.36,0,0,0,2.81,2.5ZM80.7,33c-.28.48-.56,1-.86,1.42l-1.11-.39A17.42,17.42,0,0,0,79.4,32l1.4.58a.28.28,0,0,1,.2.24C81,32.94,80.8,33,80.7,33Z"/><path class="cls-2" d="M93.61,44.88a9.16,9.16,0,0,1-4.9-4.13,26.63,26.63,0,0,0,3.06-1.1H87.5v3.19l1.94-.49-.15,1.33c-1.28.33-2.58.66-3.86,1,0,.09-.11.22-.22.22a.17.17,0,0,1-.12-.1l-.62-1.45c.57-.09,1.14-.16,1.7-.28V39.72h-2V38.4h2V32.8h7.36v1.25h-6v.74h5.26v1.13H87.51v.72h5.26v1.09H87.51v.7h6.76v1.22H92.64l.65,1a.18.18,0,0,1-.18.19.49.49,0,0,1-.23-.08c-.75.17-1.5.33-2.25.45.72,1.22,2.69,2,3.87,2.33Z"/><path class="cls-2" d="M102.31,44.86c-1.68,0-3.33-.7-3.35-3,0-.34,0-.68.06-1-.88-.31-2.06-.7-2.09-2a5.21,5.21,0,0,1,.54-1.8c.45.1.91.24,1.36.34a2.61,2.61,0,0,0-.59,1.24c0,.49.69.7,1,.79.19-1.11.41-2.22.6-3.33l-.62.81a21.68,21.68,0,0,0-1.94-1.67c.27-.42.55-.84.84-1.27a17.89,17.89,0,0,1,1.8,1.55,17.55,17.55,0,0,0,.38-2.82c.39.07.79.19,1.17.29a3.74,3.74,0,0,1,.48.12c.09,0,.17.07.17.19a.56.56,0,0,1-.22.36c-.09.31-.16.65-.23,1-.15.66-.29,1.33-.45,2-.23,1-.47,2.1-.65,3.16.48.08,1,.08,1.46.13l-.22,1.36a9.7,9.7,0,0,1-1.42-.11,3.23,3.23,0,0,0,0,.62,1.57,1.57,0,0,0,1.75,1.65c1,0,1.48-.64,1.47-1.81a6,6,0,0,0-1.77-3.53,11.55,11.55,0,0,0,1.32-.65,6.61,6.61,0,0,1,2,4.58A2.72,2.72,0,0,1,102.31,44.86Z"/></g></g></svg>