<svg xmlns="http://www.w3.org/2000/svg" viewBox="0 0 164.33 164.33"><defs><style>.cls-1{fill:#e83819;}.cls-2{fill:#fff;}</style></defs><g id="レイヤー_2" data-name="レイヤー 2"><g id="Layer_1" data-name="Layer 1"><rect class="cls-1" width="164.33" height="164.33"/><path class="cls-2" d="M16.46,45A5.75,5.75,0,0,1,14,41.76a17.55,17.55,0,0,1-.66-5.22h5.8a11.23,11.23,0,0,0,.5,3.92,1.94,1.94,0,0,0,2,1.22,1.94,1.94,0,0,0,1.7-.77A4.46,4.46,0,0,0,24,38.8c.09-.89.13-2.17.13-3.85a13,13,0,0,0-.52-4.27,2.08,2.08,0,0,0-2.15-1.42c-1.39,0-2.28.95-2.67,2.83H13.68l.42-17.8H28.53v5.15H19l-.35,6.92a4,4,0,0,1,1.86-1.1,8.59,8.59,0,0,1,2.82-.44,5.32,5.32,0,0,1,4.83,2.59,13.62,13.62,0,0,1,1.63,7.27,24.24,24.24,0,0,1-.66,6.17,7,7,0,0,1-2.49,3.87,8.49,8.49,0,0,1-5.24,1.41A9.17,9.17,0,0,1,16.46,45Z"/><path class="cls-2" d="M119.87,62.09H99.35a.26.26,0,0,0-.26.26v6.82a.26.26,0,0,0,.26.26h8.17L98.45,78.5a26.86,26.86,0,1,0-20,47.78v7.86H70.32a.26.26,0,0,0-.27.25v7.31a.26.26,0,0,0,.27.26h8.09v7.74a.26.26,0,0,0,.26.26H86a.26.26,0,0,0,.26-.26V142h8.09a.25.25,0,0,0,.26-.26v-7.31a.25.25,0,0,0-.26-.25H86.24v-8a26.85,26.85,0,0,0,17.6-42l9-8.94v7.63a.26.26,0,0,0,.26.26h6.82a.26.26,0,0,0,.26-.26V62.35a.26.26,0,0,0-.26-.26m-38,57.33a19.78,19.78,0,1,1,19.78-19.78,19.8,19.8,0,0,1-19.78,19.78"/><path class="cls-2" d="M94,91.52H70a.25.25,0,0,0-.26.23v5.81a.25.25,0,0,0,.26.24H94a.25.25,0,0,0,.27-.24V91.75a.26.26,0,0,0-.27-.23"/><path class="cls-2" d="M94,101.89H70a.25.25,0,0,0-.26.24v5.81a.25.25,0,0,0,.26.23H94a.25.25,0,0,0,.27-.23v-5.81a.26.26,0,0,0-.27-.24"/><path class="cls-2" d="M46.31,21.41a14.6,14.6,0,0,0-2.81-2.1c.3-.47.58-1,.88-1.44a12.73,12.73,0,0,1,2.85,2Zm-1.83,5.2c-.1-.17-.84-1.63-.84-1.72s.1-.11.16-.12a13.73,13.73,0,0,0,2.27-.69,19,19,0,0,0,6.5-5c0,.75.13,1.51.22,2.27A17,17,0,0,1,44.48,26.61ZM48,18.22a12,12,0,0,0-2.63-1.72c.29-.48.56-1,.82-1.46a10.24,10.24,0,0,1,2.72,1.7C48.62,17.25,48.33,17.74,48,18.22Zm3.66-.76a14.42,14.42,0,0,0-1-1.9l.91-.48a17.3,17.3,0,0,1,.93,1.82Zm1.53-.61c-.33-.64-.65-1.32-1-1.94l.87-.52A12.84,12.84,0,0,1,54,16.28Z"/><path class="cls-2" d="M56.28,26.1V24.78H59.5V20.56H56.87V19.18h6.8v1.38H61v4.22h3.31V26.1Z"/><path class="cls-2" d="M70.72,25.35a10.37,10.37,0,0,1-2.12.77l-.84-1.77c0-.05.06-.05.1-.05a2.32,2.32,0,0,0,.52-.07,12.48,12.48,0,0,0,3.85-1.67,21.47,21.47,0,0,0,4.5-3.73c.1.69.22,1.38.32,2.07A20.45,20.45,0,0,1,70.72,25.35Zm-.28-5.69A15.43,15.43,0,0,0,68,17c.47-.4.92-.82,1.37-1.23a13.4,13.4,0,0,1,2.33,2.58A9.11,9.11,0,0,1,70.44,19.66Z"/><path class="cls-2" d="M87.52,18c0,.17-.09.35-.14.52A10.85,10.85,0,0,1,87,19.8a16.77,16.77,0,0,1-1.06,2.45c.54.43,1.08.88,1.59,1.36-.31.42-.65.83-1,1.22-.45-.45-.93-.89-1.4-1.31a10.33,10.33,0,0,1-4.41,3.34q-.51-.59-1.08-1.14a.11.11,0,0,1,0-.07c0-.06,0-.06.07-.07a4.45,4.45,0,0,0,.7-.24,8.71,8.71,0,0,0,3.51-2.81c-.48-.39-1-.73-1.51-1.08.3-.4.57-.8.87-1.2.48.34,1,.69,1.42,1.06a9.92,9.92,0,0,0,1-2.85c-.82,0-1.63,0-2.45,0a14.24,14.24,0,0,1-2.54,3.4c-.4-.31-.81-.62-1.23-.9a11.76,11.76,0,0,0,3.32-6.08l1.62.69a.16.16,0,0,1,.1.16c0,.12-.14.17-.22.17-.15.36-.3.73-.46,1.08,1.14,0,2.26,0,3.39-.17a6.31,6.31,0,0,0,.52.62C87.66,17.63,87.58,17.8,87.52,18ZM87,16.57c-.3-.62-.64-1.22-1-1.81l.9-.5a14.53,14.53,0,0,1,.9,1.81Zm1.64-.41a16,16,0,0,0-1-1.88l.87-.53a10.82,10.82,0,0,1,.94,1.86Z"/><path class="cls-2" d="M100.52,21.62c-.69,0-1.28-.06-1.83-.06s-6.31,0-7.85.06c0-.57,0-1.28-.06-1.71,0-.21.08-.11.16-.1s.59,0,.7.05c.73,0,2.62,0,3.46,0,1.75,0,3.48,0,5.43-.07C100.49,20.32,100.53,21.05,100.52,21.62Z"/><path class="cls-2" d="M109.72,22.55v4.62h-1.46V22.55h-4.59V21.17h4.59V16.49h-4V15.14h9.36v1.35h-4v4.68h4.58v1.38Zm-3.45-1.92c-.43-1-.86-2-1.37-3l1.29-.7a16.81,16.81,0,0,1,1.14,3ZM113,18.05c-.42.89-.85,1.78-1.33,2.64l-1.07-.51c.39-1.06.76-2.14,1.07-3.24l1.45.66a.29.29,0,0,1,.17.24C113.29,18,113.09,18.05,113,18.05Z"/><path class="cls-2" d="M120,16.77l.13,1-1,.27-.39-1.27h-.33a9.92,9.92,0,0,1-1.29,1.69l-1-.69a8,8,0,0,0,1.78-3.51l1.39.45a.23.23,0,0,1,.16.19c0,.13-.14.21-.23.22a3.5,3.5,0,0,1-.26.51h2.35v1.17Zm4.09,5,0,.84h2.38v1.26H124.1c0,2.15.21,3.37-2,3.75l-.82-1.2c.83-.16,1.44-.23,1.44-1.4V23.85h-3.53c.36.34.7.69,1,1.06s.52.5.76.8l-.9,1c-.67-.67-1.32-1.38-2-2l.8-.9h-2.24V22.59h6.11v-.86h-6.47V20.55h4.44V19.7h-3.2V18.5h3.16v-1l1.46.2c.06,0,.06-.06.06,0s0,.28-.12.31v.43h3.51v1.2h-3.53v.85h4.68v1.2Zm.89-4.92L124.6,18l-1-.11,0-1.15h-.79a13.58,13.58,0,0,1-.75,1.29l-1.4-.53a10,10,0,0,0,1.65-3.24l1.43.43a.17.17,0,0,1,.14.15c0,.13-.15.16-.24.16a6.54,6.54,0,0,1-.28.6h3.2v1.19Z"/><path class="cls-2" d="M138,21.15a.29.29,0,0,1-.17-.06c-.83.29-2.43.95-3.19,1.32v2.17H133.3c0-.2,0-.41,0-.65v-.79c-.92.45-1.38,1-1.38,1.68s.53.85,1.58.85a9.92,9.92,0,0,0,3.35-.55l-.05,1.64a8.85,8.85,0,0,1-2.89.41c-2.25,0-3.38-.75-3.38-2.25a2.85,2.85,0,0,1,.94-2,8.53,8.53,0,0,1,1.75-1.21c0-.63-.2-1-.54-1a1.62,1.62,0,0,0-1.18.54,11.82,11.82,0,0,0-.89,1c-.43.49-.69.83-.85,1l-1-1.16a10,10,0,0,0,2.9-3.82c-.61.09-1.29.14-2,.19,0-.54-.11-1-.18-1.47a18.93,18.93,0,0,0,2.64-.14,12.38,12.38,0,0,0,.39-1.94l1.56.36a.16.16,0,0,1,.13.17c0,.08-.05.15-.18.21-.06.24-.16.61-.31,1.09a16.05,16.05,0,0,0,2.15-.53l-.13,1.56c-.63.14-1.48.28-2.54.43a8.1,8.1,0,0,1-.71,1.41,2.33,2.33,0,0,1,.65-.1c.7,0,1.17.49,1.37,1.51.92-.51,2-1,3.11-1.56l.53,1.58C138.16,21.1,138.11,21.15,138,21.15Z"/><path class="cls-2" d="M53.54,44.8a8.87,8.87,0,0,1-2.84-1.25,6.06,6.06,0,0,1-2-2.09,7.16,7.16,0,0,1-4.59,3.26l-.81-1.24A5.79,5.79,0,0,0,47.47,41H43.4V39.73h4.53c0-.27,0-.54,0-.81H44.52V37.71H48v-.87H45.27V35.63H48v-.91l1.41.1a.13.13,0,0,1,.15.14.24.24,0,0,1-.16.2v.47H52.2v1.21H49.37v.87H53v1.21H49.34c0,.27,0,.54,0,.81h4.74V41H50c.89,1.46,2.95,2.2,4.4,2.44Zm-1.08-8.54V34.5H45v1.76H43.68v-3H48V31.73l1.49.1c.09,0,.2,0,.2.17a.3.3,0,0,1-.21.24v1h4.4v3Z"/><path class="cls-2" d="M60.41,40.84c-1.12.55-2.27,1-3.4,1.54,0,.08-.08.21-.17.21s-.11,0-.16-.14L56.15,41l1.78-.61v-3H56.54V36.19h1.39V33.75h-1.5V32.54h4v1.21H59.3v2.44h1v1.23h-1v2.63l1.18-.52Zm7.23,3.54a4.85,4.85,0,0,1-2,.38c-.93,0-1.9-.18-1.9-1.54v-2.9H62.61c.11.09.68.51.68.65s-.1.14-.16.15a13.43,13.43,0,0,1-.76,1.4,7.34,7.34,0,0,1-3,2.54l-1-1a5.77,5.77,0,0,0,3.49-3.75H60.79V32.4h5.93v7.92H65v2.44c0,.46.13.77.57.77a3.51,3.51,0,0,0,2.16-.91ZM65.33,33.64H62.11v1.1h3.22Zm-3.22,2.23v1.07h3.22l0-1.07Zm3.24,2.2H62.11v1.15h3.24Z"/><path class="cls-2" d="M76.6,43.34a5.6,5.6,0,0,1-3.2.95c-1.71,0-2.78-1.14-2.88-3.14,0-.27,0-.54,0-.8,0-.76,0-1.52,0-2.3,0-1.82.06-3.65.08-5.47.37.06.76.13,1.13.21a3.25,3.25,0,0,1,.47.1c.1,0,.22.1.22.23a.3.3,0,0,1-.18.24c-.14,2.45-.25,4.93-.25,7.38,0,1.26.48,2,1.6,2a3.25,3.25,0,0,0,1.53-.41,5.84,5.84,0,0,0,2.43-2.94l.88,1.83A6.85,6.85,0,0,1,76.6,43.34Z"/><path class="cls-2" d="M89.51,43.93a13.71,13.71,0,0,0-2.74-2,2.28,2.28,0,0,1-2.61,2.35c-1.19,0-3-.7-3-2.4s1.42-2.28,2.65-2.28a6.34,6.34,0,0,1,1.5.18c0-2-.08-4-.24-5.92-.05-.48-.07-1-.16-1.42l1.61.24c.07,0,.21.08.21.2s-.08.15-.14.19v.54c0,.62,0,1.24,0,1.86h.14a13.18,13.18,0,0,0,1.66-.08c.44-.06.86-.16,1.28-.23,0,.55,0,1.1,0,1.66-.68.06-1.37.1-2,.1-.32,0-.63,0-1,0,0,1.13,0,2.26.08,3.4a20.25,20.25,0,0,1,3.78,2.14ZM85.3,41.26a3.77,3.77,0,0,0-1.6-.36c-.42,0-1.07.31-1.07.88,0,.88.84,1.1,1.43,1.1a1.08,1.08,0,0,0,1.24-1.22Z"/><path class="cls-2" d="M96.65,44.49c-.44-.41-.89-.83-1.36-1.2a5.74,5.74,0,0,0,3.47-2.45,4.46,4.46,0,0,0,.47-2.07c0-1.26-.41-2-1.52-2a10,10,0,0,0-3.42,1.51c-.08-.21-.66-1.66-.66-1.79s.11-.08.16-.08a8,8,0,0,0,1.5-.41,8.21,8.21,0,0,1,2.81-.72c1.93,0,2.78,1.52,2.78,3.62A6,6,0,0,1,96.65,44.49Zm2.11-10.16a16.88,16.88,0,0,0-3.41-1.27c.23-.51.45-1,.68-1.52a13.35,13.35,0,0,1,3.49,1.28C99.28,33.32,99,33.83,98.76,34.33Z"/></g></g></svg>