<svg xmlns="http://www.w3.org/2000/svg" viewBox="0 0 164.33 164.33"><defs><style>.cls-1{fill:#00a6d9;}.cls-2{fill:#fff;}</style></defs><g id="レイヤー_2" data-name="レイヤー 2"><g id="Layer_1" data-name="Layer 1"><rect class="cls-1" width="164.33" height="164.33"/><path class="cls-2" d="M15.28,43.27a12.32,12.32,0,0,1-2.07-7.51V24.62q0-5.1,1.86-7.91t6.54-2.8c2.78,0,4.8.65,6,2s1.87,3.3,1.9,6l0,.54H23.89a7.68,7.68,0,0,0-.42-3,1.79,1.79,0,0,0-1.78-.87,1.87,1.87,0,0,0-1.49.58A3.76,3.76,0,0,0,19.46,21a26.58,26.58,0,0,0-.21,3.83V28a3.37,3.37,0,0,1,1.62-1.34,6.46,6.46,0,0,1,2.56-.48,5.58,5.58,0,0,1,5.05,2.42A12.06,12.06,0,0,1,30,35.18c0,3.46-.64,6.13-1.93,8s-3.45,2.84-6.46,2.84S16.66,45.12,15.28,43.27Zm8.28-3a12.82,12.82,0,0,0,.49-4.12,29.59,29.59,0,0,0-.12-3.06,3.32,3.32,0,0,0-.64-1.74,1.92,1.92,0,0,0-1.6-.66,2.55,2.55,0,0,0-1.45.43,3.07,3.07,0,0,0-1,1v5q0,4.44,2.47,4.44A1.81,1.81,0,0,0,23.56,40.31Z"/><path class="cls-2" d="M112.57,66.38a.7.7,0,0,0-.54-.24H52.14a.7.7,0,0,0-.54.24.72.72,0,0,0-.15.56L61.51,127.8a.71.71,0,0,0,.69.59H74.55l.85,9.91H70.2l12.09,12.1,12.12-12.12H89.22l.84-9.89h12.57a.69.69,0,0,0,.68-.6l9.42-60.85A.7.7,0,0,0,112.57,66.38ZM89.42,115.1a9.62,9.62,0,0,1-7.14,2.49,9.64,9.64,0,0,1-7.16-2.49c-4.49-4.49-2.88-10.06-1.32-12.94,1-1.81,7.86-12.16,8.45-13v-.07l0,0,0,0v.07c.58.88,7.48,11.23,8.45,13C92.31,105,93.91,110.61,89.42,115.1Zm19-35.92a7.44,7.44,0,0,0-5.65.34c-7.44,3-12.49,4.1-20.31,1.65-4.92-1.54-9.53-4.77-15-2.8-3.61,1.3-7,2.54-11.06,2.51l-2.36-12.1h56.05Z"/><path class="cls-2" d="M52.16,21.65a12.72,12.72,0,0,1-1.51,3,26.38,26.38,0,0,1,3.35,2l-1,1.24a18.49,18.49,0,0,0-3.33-2.27,10.3,10.3,0,0,1-4.92,2.06l-.85-1.28a8.46,8.46,0,0,0,4.39-1.44,17.15,17.15,0,0,0-2.94-.82,18.28,18.28,0,0,0,1.22-2.47H43.67V20.38h3.47A18.9,18.9,0,0,0,48,18l1.62.49a.16.16,0,0,1,.11.14c0,.14-.18.2-.28.21-.25.54-.48,1.07-.75,1.59h5.87v1.27Zm.37-2.12V17.78H45.65v1.75H44.2v-3h4.07V14.89l1.56.1c.11,0,.25,0,.25.17s-.12.16-.2.21v1.15h4.17v3ZM48.1,21.67c-.27.52-.5,1.06-.78,1.58a14.93,14.93,0,0,1,2,.76,8.79,8.79,0,0,0,1.15-2.34Z"/><path class="cls-2" d="M67.59,21.53a15.58,15.58,0,0,1-1.45-1v.57H63.28v1.75h3.5v1.28h-3.5v2h4.43v1.26H57.51V26.16h4.31v-2H58.33V22.85h3.49V21.1H59v-.57a11.15,11.15,0,0,1-1.48,1l-.92-1.24a11.1,11.1,0,0,0,5.15-5.42l1.59.26a.22.22,0,0,1,.18.19.28.28,0,0,1-.06.14,12.75,12.75,0,0,0,5.11,4.78Zm-5.05-4.82a12.84,12.84,0,0,1-2.62,3.1h5.31A15.11,15.11,0,0,1,62.54,16.71Z"/><path class="cls-2" d="M76.33,18.61c-.63.17-1.23.31-1.85.42a28.81,28.81,0,0,1-2.75,6.61c-.47-.22-.94-.49-1.4-.76a22,22,0,0,0,2.53-5.68,13.13,13.13,0,0,1-1.88.16c-.06-.5-.14-1-.2-1.5a5.23,5.23,0,0,0,.69,0,12.9,12.9,0,0,0,1.76-.11,14.19,14.19,0,0,0,.34-2.44c.59.08,1.17.16,1.76.28-.15.65-.31,1.31-.51,2a14.07,14.07,0,0,0,1.52-.48C76.34,17.6,76.33,18.1,76.33,18.61ZM79.81,27a11.43,11.43,0,0,0-1.73-1.46c0,.16,0,.31,0,.47,0,1.45-1,1.84-2.1,1.84a3.86,3.86,0,0,1-1.21-.18,2.25,2.25,0,0,1-1.56-2,2.06,2.06,0,0,1,2.22-2.14,7,7,0,0,1,1,.08c0-.66-.08-1.32-.08-2a2.7,2.7,0,0,1,.15-1h1.14c.07,0,.44-.05.44.12a.11.11,0,0,1,0,.06,1.6,1.6,0,0,0-.23.85c0,.75.05,1.49.11,2.23a9.5,9.5,0,0,1,2.74,1.68C80.44,26,80.14,26.52,79.81,27Zm-3.22-2a2.13,2.13,0,0,0-.91-.16c-.48,0-1.07.14-1.07.8s.73.95,1.22.95.81-.1.81-.71C76.64,25.52,76.61,25.22,76.59,24.93Zm3.35-4.31A8.06,8.06,0,0,0,76.87,19l.73-1.4a7.67,7.67,0,0,1,3.14,1.62Z"/><path class="cls-2" d="M87.7,19.68A13.17,13.17,0,0,1,86,24.15,7.23,7.23,0,0,1,84.22,26L83,25a9.38,9.38,0,0,0,1-.95,9.23,9.23,0,0,0,2.15-4.64H83.61V18.14H87.8v1A2.7,2.7,0,0,1,87.7,19.68Zm6.41,6.57A14.43,14.43,0,0,1,90,20.17c0,1.64,0,3.26,0,4.89,0,1.88-.58,2.66-2.24,3l-1.06-1.22a4.29,4.29,0,0,0,.81-.14c.91-.32,1-1,1-1.94,0-2.41,0-4.84,0-7.25V15.11l1.62.26a.18.18,0,0,1,.16.17.36.36,0,0,1-.25.29v3.42a36.61,36.61,0,0,0,3.31-2l.94,1.42a.67.67,0,0,1,.13.28.16.16,0,0,1-.17.15A.47.47,0,0,1,94,19c-.88.29-1.76.65-2.63.95a11.28,11.28,0,0,0,3.92,5Z"/><path class="cls-2" d="M102.5,27.21c-1.78,0-4.61-.27-4.61-3,0-2,1.49-3,2.89-3.64a20.82,20.82,0,0,1-.49-5l1.13.09a5.11,5.11,0,0,1,.55,0c.07,0,.14,0,.14.13A.25.25,0,0,1,102,16a8.18,8.18,0,0,0-.08,1.3,8.13,8.13,0,0,0,.24,2.52.14.14,0,0,0,.11.05,14.05,14.05,0,0,0,3.13-1.26c.18.61.31,1.24.46,1.86-1.55.36-6.48,1.26-6.48,3.58,0,1.31,1.83,1.57,2.69,1.57a10.79,10.79,0,0,0,4-.64c.08.6.14,1.2.18,1.81A19.11,19.11,0,0,1,102.5,27.21Z"/><path class="cls-2" d="M115.37,23.8a17.42,17.42,0,0,0-3.55-2.28c0,.23,0,.45,0,.67v3.22c0,.85,0,1.71,0,2.56h-1.7c.09-1.84.1-3.68.1-5.52,0-2.14,0-4.28-.06-6.41l1.74.19c.09,0,.17.05.17.17a.33.33,0,0,1-.19.26c0,1.3-.06,2.61-.09,3.92a5.73,5.73,0,0,0,.43-.7,16.92,16.92,0,0,1,4.08,2.41C116,22.79,115.69,23.3,115.37,23.8Z"/><path class="cls-2" d="M126.82,17.23A17,17,0,0,1,124.56,20v8H123l0-6.79a17.83,17.83,0,0,1-1.59,1.15,19.18,19.18,0,0,1-1.87,1l-1-1.41a12.83,12.83,0,0,0,2.54-1.31,14.31,14.31,0,0,0,2.29-1.87,12.66,12.66,0,0,0,2.11-2.86l1.53,1a.17.17,0,0,1,.09.15C127.08,17.2,126.91,17.23,126.82,17.23Z"/><path class="cls-2" d="M132.75,27.33a5.19,5.19,0,0,0-.87.53c-.38-.36-.76-.74-1.15-1.06a3.16,3.16,0,0,0,.17-1.18c0-.86,0-1.73,0-2.59,0-2.16,0-4.46-.06-6.62l1.67.19c.07,0,.17.06.17.18a.36.36,0,0,1-.18.27c-.06,2-.09,4.19-.09,6.21v2.15a.08.08,0,0,0,.09.09.66.66,0,0,0,.15,0,13.51,13.51,0,0,0,5.23-4.24c.16-.23.3-.47.46-.69,0,0,.05-.07.09-.07s0,.08.06.13c.07.7.16,1.41.29,2.12A15.46,15.46,0,0,1,132.75,27.33Z"/><path class="cls-2" d="M54.61,39.53a.4.4,0,0,1-.19-.07c-.91.3-2.66,1-3.5,1.32V43l-1.49,0c0-.2,0-.41,0-.65V41.5c-1,.46-1.52,1-1.52,1.68s.58.86,1.73.86a11.64,11.64,0,0,0,3.68-.56l-.05,1.65a11,11,0,0,1-3.18.41c-2.47,0-3.71-.75-3.71-2.26a2.76,2.76,0,0,1,1-2A8.93,8.93,0,0,1,49.36,40c0-.64-.23-1-.59-1a1.9,1.9,0,0,0-1.31.54,11.59,11.59,0,0,0-1,1c-.47.5-.76.83-.94,1-.22-.25-.58-.63-1-1.15a10.36,10.36,0,0,0,3.18-3.82c-.67.08-1.42.14-2.22.18,0-.53-.13-1-.21-1.47a22.83,22.83,0,0,0,2.9-.14,11.25,11.25,0,0,0,.43-1.94l1.7.37a.16.16,0,0,1,.15.16c0,.09-.06.16-.2.21-.06.25-.18.61-.34,1.09a20.71,20.71,0,0,0,2.36-.52l-.14,1.55c-.69.14-1.63.28-2.79.44a8.8,8.8,0,0,1-.78,1.41,2.43,2.43,0,0,1,.72-.1c.77,0,1.27.49,1.5,1.51,1-.51,2.16-1,3.41-1.57l.58,1.58C54.76,39.47,54.71,39.53,54.61,39.53Z"/><path class="cls-2" d="M66.29,38v4.16H61.73V38H60.11v6h7.57v1.38H58.63V38H56.79V36.6h1.84V33.47l1.51.08c.08,0,.2.06.2.17a.28.28,0,0,1-.21.24V36.6H61.7V33.19l1.47.07c.09,0,.2.05.2.16a.27.27,0,0,1-.2.24V36.6h1.62V33.19l1.48.07c.1,0,.21.05.21.16a.29.29,0,0,1-.22.24V36.6h2V38ZM64.8,38H63.14v2.89H64.8Z"/><path class="cls-2" d="M80.81,42.9a10.7,10.7,0,0,1-2.69-1.65v4.41H76.73V40.09c-.25-.29-.49-.61-.73-.91h-.83a11,11,0,0,1-.9,1l.64.1c.08,0,.2.06.2.17a.29.29,0,0,1-.21.26,6.87,6.87,0,0,1-1,3.74A4.57,4.57,0,0,1,72.1,45.9l-1.14-1c1.85-.69,2.39-1.84,2.48-3.94a10.6,10.6,0,0,1-2.85,1.88l-.87-1.17a10.49,10.49,0,0,0,2.2-1.15,6,6,0,0,0,1.43-1.37h-2V33.3h8.79v5.88H77.77c.83,1.18,2.7,2,4,2.44ZM75,34.5H72.74v1.25H75Zm0,2.44H72.74v1.21H75Zm3.71-2.44H76.33v1.25h2.33Zm0,2.44H76.33v1.21h2.33Z"/><path class="cls-2" d="M89.36,41.67v4.06H87.87V41.67H83.64V35.26H87.8V32.88l1.57.12a.19.19,0,0,1,.2.17.27.27,0,0,1-.21.24v1.85h4.33v6.41Zm-1.51-5.09H85.1V40.4h2.75Zm4.34,0H89.34V40.4h2.85Z"/><path class="cls-2" d="M98.79,45.09c-.44,0-.88.1-1.33.16a18.65,18.65,0,0,1-.64-5.54,35.11,35.11,0,0,1,.64-6.23l1.06.25a3.59,3.59,0,0,1,.52.13.19.19,0,0,1,.14.19.2.2,0,0,1-.2.19,28.64,28.64,0,0,0-.71,6.47c0,.53,0,1,0,1.57.22-.66.42-1.33.65-2l.92.86A13.35,13.35,0,0,0,98.79,45.09Zm7.88-.42a9.74,9.74,0,0,1-2.22.13c-1.75-.06-3.37-.34-3.58-3,.41-.31.82-.64,1.24-.93,0,1.51.71,2.19,1.84,2.23a7.75,7.75,0,0,0,2.75-.33C106.69,43.39,106.68,44,106.67,44.67Zm-.3-8.15a9.6,9.6,0,0,0-2.83-.18,14.75,14.75,0,0,0-2,.34c0-.52-.09-1.17-.15-1.7a15.19,15.19,0,0,1,2.77-.33,9.89,9.89,0,0,1,2.3.11C106.46,35.34,106.43,35.94,106.37,36.52Z"/></g></g></svg>