<svg xmlns="http://www.w3.org/2000/svg" viewBox="0 0 164.33 164.33"><defs><style>.cls-1{fill:#fabd00;}.cls-2{fill:#fff;}</style></defs><g id="レイヤー_2" data-name="レイヤー 2"><g id="Layer_1" data-name="Layer 1"><rect class="cls-1" width="164.33" height="164.33"/><path class="cls-2" d="M22,18.86H13.48V14.29H27.84V18.2L21.22,45.63h-5.8Z"/><path class="cls-2" d="M82.23,80.06a24.2,24.2,0,1,0,24.19,24.2,24.19,24.19,0,0,0-24.19-24.2m-1.8,9.56a1.8,1.8,0,0,1,3.6,0v8.31a1.8,1.8,0,0,1-3.6,0Zm1.8,27a12.59,12.59,0,0,1-3.74-24.61v4.69a8.24,8.24,0,1,0,7.46,0V92.05a12.59,12.59,0,0,1-3.72,24.61"/><path class="cls-2" d="M54.45,104.05a2,2,0,0,0-1.86-2H42a2,2,0,0,0,0,4H52.59a2,2,0,0,0,1.86-2"/><path class="cls-2" d="M124.34,104.05a2,2,0,0,0-1.86-2H111.89a2,2,0,0,0,0,4h10.59a2,2,0,0,0,1.86-2"/><path class="cls-2" d="M82.24,146.16a2,2,0,0,0,2-1.86V133.7a2,2,0,0,0-4,0v10.6a2,2,0,0,0,2,1.86"/><path class="cls-2" d="M118.78,125a2,2,0,0,0-.63-2.65L109,117.05a2,2,0,0,0-2,3.46l9.2,5.26a2,2,0,0,0,2.6-.81"/><path class="cls-2" d="M61.32,140.6A2,2,0,0,0,64,140l5.26-9.2a2,2,0,0,0-3.46-2L60.51,138a2,2,0,0,0,.81,2.61"/><path class="cls-2" d="M103.23,140.55A2,2,0,0,0,104,138l-5.28-9.19a2,2,0,0,0-3.45,2l5.28,9.18a2,2,0,0,0,2.66.62"/><path class="cls-2" d="M45.73,125a2,2,0,0,0,2.6.8l9.19-5.28a2,2,0,0,0-2-3.45l-9.18,5.28a2,2,0,0,0-.62,2.65"/><path class="cls-2" d="M82.24,76.27a2,2,0,0,0,2-1.86V63.81a2,2,0,0,0-4,0v10.6a2,2,0,0,0,2,1.86"/><path class="cls-2" d="M58.12,90.25a2,2,0,0,0-.62-2.65l-9.2-5.26a2,2,0,0,0-2,3.45l9.2,5.26a2,2,0,0,0,2.6-.8"/><path class="cls-2" d="M96,79.94a2,2,0,0,0,2.65-.63l5.26-9.19a2,2,0,0,0-3.45-2l-5.26,9.2a2,2,0,0,0,.8,2.6"/><path class="cls-2" d="M68.39,80a2,2,0,0,0,.79-2.61L63.9,68.18a2,2,0,0,0-3.45,2l5.28,9.19a2,2,0,0,0,2.66.62"/><path class="cls-2" d="M106.32,90.2a2,2,0,0,0,2.6.8l9.18-5.28a2,2,0,0,0-2-3.45l-9.19,5.28a2,2,0,0,0-.61,2.65"/><path class="cls-2" d="M40.64,26.92V25.29h3.55V19.13H41.24V17.5h7.38v1.63h-3v6.16h3.6v1.63Z"/><path class="cls-2" d="M56,22.16v1.71c0,1.29,0,2.59,0,3.87h-1.4c0-1.41,0-2.81,0-4.22a9.84,9.84,0,0,1-2.81,1.94,13.35,13.35,0,0,0-1-1.44,9,9,0,0,0,5.1-4.76c-1.27,0-2.55.16-3.82.23,0-.61-.05-1.2-.08-1.81,1.64,0,3.29,0,4.93-.1a2.91,2.91,0,0,0,.72-.1l.41.81A29.6,29.6,0,0,1,56,22.16Zm-.5-4.93a13.36,13.36,0,0,0-2.2-1.68L54,14.17a12.89,12.89,0,0,1,2.36,1.7C56.12,16.34,55.83,16.79,55.52,17.23Zm3.33,8.07a14.73,14.73,0,0,0-2.35-2.75l.81-1.24a10.66,10.66,0,0,1,2.5,2.59Z"/><path class="cls-2" d="M64.15,17.58c-.07,3.26.28,6.28-1.3,9a5.32,5.32,0,0,1-1.08,1.33l-1.15-1.06c1.74-1.54,2.1-3.5,2.1-6.27,0-1.17,0-2.4,0-3.57l1.48.19c.06,0,.12,0,.12.16A.37.37,0,0,1,64.15,17.58Zm4.1,8.77a19.33,19.33,0,0,1-1.85,1.19,8.57,8.57,0,0,1-.88-.83,2.81,2.81,0,0,0,.11-.77V24c0-2.43,0-4.91-.07-7.35l1.55.25a.19.19,0,0,1,.12.19.35.35,0,0,1-.17.27c0,.68,0,1.34,0,2,0,1.92,0,3.88,0,5.79a10.26,10.26,0,0,0,2.56-2.35c.23-.29.44-.62.66-.93,0,0,0-.08.08-.08s0,.15,0,.19c.05.66.13,1.29.22,1.94A12.45,12.45,0,0,1,68.25,26.35Z"/><path class="cls-2" d="M77.59,23.87c.07,1.43.13,2.85.22,4.29-.48,0-1,.06-1.43.13,0-1.45-.12-2.88-.16-4.33-1.25,0-2.49.09-3.74.18l0-1.62c.28,0,.56,0,.85,0,1,0,1.9-.06,2.84-.09,0-.83-.06-1.65-.12-2.49-.85,0-1.69.07-2.55.11,0-.54,0-1.09-.08-1.63q1.26,0,2.52,0c0-.9-.11-1.78-.18-2.68l1.52.19a.22.22,0,0,1,.18.23.32.32,0,0,1-.18.28c0,.65,0,1.3,0,1.95A24,24,0,0,0,80,18.19c0,.57,0,1.12,0,1.68-.86,0-1.73,0-2.58,0,0,.82.06,1.65.11,2.47,1.19-.05,2.39-.12,3.58-.24,0,.55,0,1.1,0,1.64C79.91,23.74,78.74,23.82,77.59,23.87Zm1.63-6.27a25.71,25.71,0,0,0-.73-2.5l1.05-.45A21.65,21.65,0,0,1,80.2,17ZM81,17.23c-.21-.88-.44-1.76-.72-2.58l1-.4a19.58,19.58,0,0,1,.68,2.38Z"/><path class="cls-2" d="M91.7,23C91,23,90.5,23,90,23s-5,0-6.46.06c0-.58-.06-1.32-.07-1.75,0-.22.09-.23.16-.22a4.46,4.46,0,0,0,.68.1c.73,0,1.5,0,2.33,0,1.72,0,3.25,0,5.18-.07C91.73,21.72,91.72,22.45,91.7,23Z"/><path class="cls-2" d="M102.28,21.9a.22.22,0,0,1-.15-.08c-.74.31-2.16,1-2.83,1.37v2.23H98.09c0-.21,0-.42,0-.67v-.81a2,2,0,0,0-1.23,1.72c0,.58.47.88,1.41.88a7.56,7.56,0,0,0,3-.57l0,1.69a6.91,6.91,0,0,1-2.57.43c-2,0-3-.77-3-2.33a3.16,3.16,0,0,1,.83-2.09A7.29,7.29,0,0,1,98,22.42c0-.66-.19-1-.48-1a1.38,1.38,0,0,0-1,.55,11.67,11.67,0,0,0-.79,1L95,24l-.85-1.19a10.47,10.47,0,0,0,2.58-3.93,17.8,17.8,0,0,1-1.8.19c0-.55-.1-1.06-.16-1.51a13.73,13.73,0,0,0,2.34-.15,15.11,15.11,0,0,0,.35-2l1.38.38a.17.17,0,0,1,.12.17.24.24,0,0,1-.16.22c0,.25-.15.63-.28,1.12a13.36,13.36,0,0,0,1.91-.54l-.11,1.6c-.56.14-1.32.29-2.26.45a10.41,10.41,0,0,1-.64,1.45,1.7,1.7,0,0,1,.59-.1c.62,0,1,.5,1.22,1.55.81-.52,1.74-1.06,2.76-1.61l.47,1.62C102.41,21.84,102.37,21.9,102.28,21.9Z"/><path class="cls-2" d="M112.7,25.76a15.45,15.45,0,0,0-1.39-1.31,8,8,0,0,1-2.25,3.68l-1.07-.9a6.51,6.51,0,0,0,2.23-3.5,6.59,6.59,0,0,0-2-.93c-.17.51-.33,1-.53,1.52-.48,1.21-1.14,2.43-2.24,2.4-.91,0-1.52-1.06-1.49-2.33a3.15,3.15,0,0,1,2.07-3.05,4,4,0,0,1,1.33-.11c.26-1,.65-2.46.91-3.54l-2.27.16-.17-1.59H106a14.38,14.38,0,0,0,3.73-.18c.12.26.26.51.4.77a23.6,23.6,0,0,0-.87,2.44c-.2.7-.38,1.4-.6,2.08a7,7,0,0,1,1.94.82,16.24,16.24,0,0,0,.42-3.05c.41.36.82.71,1.21,1.1a19,19,0,0,1-.45,2.65,14.72,14.72,0,0,1,1.57,1.16C113.14,24.62,112.93,25.2,112.7,25.76Zm-7.47-1.42c0,.39.1.73.4.73a.5.5,0,0,0,.45-.26,8.73,8.73,0,0,0,.94-2.22A1.75,1.75,0,0,0,105.23,24.34Z"/><path class="cls-2" d="M120.77,27.73c-1.46,0-1.35-1.72-1.35-3.06V23.33c0-.39,0-.87-.4-.87a1.07,1.07,0,0,0-.29.06c-1.65.54-2.27,3.38-2.78,5.16l-1.3-.79c.45-1.39.95-2.74,1.47-4.11.58-1.52,1.15-3.05,1.74-4.57.33-.84.63-1.7,1-2.53a13.5,13.5,0,0,1,1.38.78.16.16,0,0,1,.07.14.19.19,0,0,1-.18.18c-.74,1.42-1.39,2.93-2.06,4.39-.07.14-.13.27-.2.4a2.81,2.81,0,0,1,1.46-.54c1.06,0,1.39.91,1.39,2.12,0,.74,0,1.45,0,2.18,0,.37,0,.87.42.87a1.81,1.81,0,0,0,1.23-.76,6.85,6.85,0,0,0,1-1.72c.18.67.35,1.33.51,2A3.34,3.34,0,0,1,120.77,27.73Z"/><path class="cls-2" d="M130.25,18.78c-.54.1-1,.17-1.52.22a28.48,28.48,0,0,1-2.41,6.23c-.38-.24-.76-.51-1.14-.79A25,25,0,0,0,127.42,19a12.46,12.46,0,0,1-1.73-.05c0-.48,0-1,0-1.46a4.65,4.65,0,0,0,.58.1,9.06,9.06,0,0,0,1.48.07,14.63,14.63,0,0,0,.34-2.21c.58,0,1.1.05,1.52.08a20.31,20.31,0,0,1-.5,2.1,10.5,10.5,0,0,0,1.32-.31C130.39,17.8,130.31,18.29,130.25,18.78Zm3.15,8.59a10.14,10.14,0,0,0-1.4-1.58l0,.47A1.65,1.65,0,0,1,130,28a2.93,2.93,0,0,1-1-.28,2.23,2.23,0,0,1-1.22-2.12,2,2,0,0,1,2.11-2,5.45,5.45,0,0,1,.9.15c0-.67-.08-1.33-.05-2a3.14,3.14,0,0,1,.18-1l1,0c.07,0,.39,0,.38.13s0,.05,0,.06a1.82,1.82,0,0,0-.24.86c0,.76,0,1.53,0,2.29A8.26,8.26,0,0,1,134.31,26,14.31,14.31,0,0,1,133.4,27.37Zm-2.67-2.27a1.72,1.72,0,0,0-.78-.22c-.42,0-.95.07-1,.74a1,1,0,0,0,1,1c.41,0,.72,0,.76-.65C130.73,25.71,130.74,25.41,130.73,25.1Zm3.06-4.89a5.68,5.68,0,0,0-2.59-1.3l.62-1.38a5.94,5.94,0,0,1,2.65,1.3Z"/><path class="cls-2" d="M57.13,45.22a4.28,4.28,0,0,1-2.74,1C52.92,46.18,52,45,51.91,43c0-.27,0-.54,0-.81,0-.76,0-1.52,0-2.3,0-1.82,0-3.66.08-5.48.32,0,.65.13,1,.21a1.8,1.8,0,0,1,.4.1c.08,0,.19.1.19.22a.29.29,0,0,1-.16.24c-.12,2.46-.21,5-.21,7.41,0,1.25.41,2,1.37,2a2.62,2.62,0,0,0,1.32-.41,5.75,5.75,0,0,0,2.08-3l.75,1.83A6.44,6.44,0,0,1,57.13,45.22Z"/><path class="cls-2" d="M67.43,36.5l-.12,0a3.13,3.13,0,0,0-1.4.23c-1.3.59-2.31,2.43-2.38,4.4-.1,2.92,1.77,3.34,3.35,3.41-.09.54-.19,1.11-.32,1.65h-.21a4.94,4.94,0,0,1-2.16-.6A5.27,5.27,0,0,1,62.12,41a7.62,7.62,0,0,1,1.35-4.26c-1.19.1-2.39.24-3.57.44,0-.56,0-1.12,0-1.68A45,45,0,0,0,66,35a11.72,11.72,0,0,0,1.42-.34c0,.22.15,1.62.15,1.73A.13.13,0,0,1,67.43,36.5Z"/><path class="cls-2" d="M78,37.59c-.17.57-.32,1.15-.5,1.7a14.3,14.3,0,0,1-2.65,4.93,9.93,9.93,0,0,1-2.94,2.35c-.37-.45-.75-.91-1.14-1.33a10.8,10.8,0,0,0,1.72-1,9.92,9.92,0,0,0,1.87-1.9,13.18,13.18,0,0,0,2-4.51l-2.47,0a15,15,0,0,1-2.36,3.48c-.33-.39-.66-.8-1-1.16a13.89,13.89,0,0,0,3.25-6.32l1.39.65a.25.25,0,0,1,.13.21.2.2,0,0,1-.2.21c-.16.42-.29.86-.47,1.25h2.65a1.91,1.91,0,0,0,.57-.08c.13.26.28.5.4.77C78.14,37.11,78.05,37.36,78,37.59Z"/><path class="cls-2" d="M82.79,35.55v.59c0,1.89,0,3.79,0,5.68H81.3c0-.35,0-.71,0-1V38.69c0-1.24,0-2.48-.06-3.71l1.58.17a.12.12,0,0,1,.11.13A.39.39,0,0,1,82.79,35.55Zm4.42,0c0,.86,0,1.71,0,2.57,0,2.48,0,4.87-1.35,6.89a5.14,5.14,0,0,1-1.46,1.51,14.27,14.27,0,0,0-1.23-1,5.91,5.91,0,0,0,1.39-1.35c1.1-1.56,1.17-3.44,1.17-5.43,0-1.29-.07-2.59-.14-3.87l1.58.18c.09,0,.19.07.19.2A.38.38,0,0,1,87.21,35.56Z"/><path class="cls-2" d="M98,41.11c-.67,0-1.2,0-1.74,0s-4.81,0-6.3.06c0-.57-.06-1.28-.08-1.71,0-.21.09-.22.16-.21a4.46,4.46,0,0,0,.68.1c.72,0,2.12,0,3,0,1.71,0,2.48,0,4.38-.07C98,39.83,98,40.55,98,41.11Z"/><path class="cls-2" d="M102.84,44.9a7.53,7.53,0,0,1-1.81.82l-.71-1.89c0-.06.05-.06.08-.06a1.36,1.36,0,0,0,.44-.08,9.47,9.47,0,0,0,3.29-1.78,19.91,19.91,0,0,0,3.85-4c.08.74.19,1.48.28,2.23A18.08,18.08,0,0,1,102.84,44.9Zm-.23-6.1A15.43,15.43,0,0,0,100.54,36c.41-.42.79-.88,1.18-1.32a14.53,14.53,0,0,1,2,2.77A10,10,0,0,1,102.61,38.8Z"/><path class="cls-2" d="M113,46c-.4,0-.8.1-1.2.16a20.42,20.42,0,0,1-.58-5.54,39.46,39.46,0,0,1,.58-6.24l1,.25a4.27,4.27,0,0,1,.48.13.2.2,0,0,1,.12.2.2.2,0,0,1-.18.19,31.67,31.67,0,0,0-.64,6.46c0,.53,0,1,0,1.58.19-.66.38-1.34.59-2l.82.85A15,15,0,0,0,113,46Zm7-.69a8,8,0,0,1-2,.12c-1.58-.05-3-.34-3.24-3,.37-.31.75-.63,1.13-.93,0,1.52.64,2.2,1.66,2.23a6.18,6.18,0,0,0,2.48-.33C120,44,120,44.61,120,45.26Zm-.4-7.88A7.87,7.87,0,0,0,117,37.2a11,11,0,0,0-1.76.35c0-.53-.08-1.18-.13-1.71a12.32,12.32,0,0,1,2.49-.33,8.06,8.06,0,0,1,2.08.11C119.63,36.2,119.6,36.79,119.55,37.38Z"/><path class="cls-2" d="M138.38,27.59c-.39,0-.77.1-1.17.16a21.17,21.17,0,0,1-.56-5.53,40.27,40.27,0,0,1,.56-6.21l.93.24a2.69,2.69,0,0,1,.46.14.18.18,0,0,1,.12.19.19.19,0,0,1-.17.19,32.28,32.28,0,0,0-.62,6.45c0,.53,0,1,0,1.57.19-.66.38-1.33.58-2l.8.85A15.42,15.42,0,0,0,138.38,27.59Zm6.93-.86a7.58,7.58,0,0,1-2,.13c-1.53-.06-3-.34-3.15-3,.37-.31.73-.64,1.1-.93,0,1.51.62,2.19,1.62,2.22a5.85,5.85,0,0,0,2.41-.33C145.33,25.46,145.32,26.09,145.31,26.73Zm-.39-7.85a7.45,7.45,0,0,0-2.49-.18,9.41,9.41,0,0,0-1.71.34c-.05-.52-.08-1.17-.13-1.7A11.74,11.74,0,0,1,143,17a7.65,7.65,0,0,1,2,.12C145,17.7,145,18.29,144.92,18.88Z"/><path class="cls-2" d="M45.56,40.2a3.34,3.34,0,0,0-.91,2.93c.23,1.33,1.71,1.48,2.49,1.46a6.78,6.78,0,0,0,.77-.05c-.11.51-.24,1-.35,1.53h-.23c-1.52,0-3.7-.22-3.95-2.74a4.91,4.91,0,0,1,.83-3.52,21.6,21.6,0,0,0-3.76,1c-.08-.52-.2-1-.3-1.52a9.37,9.37,0,0,0,2-.56,14.87,14.87,0,0,0,2.56-2.89,15.78,15.78,0,0,1-2.27.12c0-.48,0-1-.06-1.43a13.5,13.5,0,0,0,3.42-.09,3.31,3.31,0,0,0,.85-.35c.23.42.45.86.65,1.29a31.83,31.83,0,0,0-3.21,3.25c1.6-.25,3.2-.44,4.79-.59,0,.54,0,1.09,0,1.64A5.18,5.18,0,0,0,45.56,40.2Z"/></g></g></svg>