<svg xmlns="http://www.w3.org/2000/svg" viewBox="0 0 164.33 164.33"><defs><style>.cls-1{fill:#004c88;}.cls-2{fill:#fff;}</style></defs><g id="レイヤー_2" data-name="レイヤー 2"><g id="Layer_1" data-name="Layer 1"><rect class="cls-1" width="164.33" height="164.33"/><path class="cls-2" d="M14.09,20.48a24.1,24.1,0,0,1-2.47,1c-1.09.36-1.77.61-2,.74V17.74a26.32,26.32,0,0,0,3.19-1.55,10.89,10.89,0,0,0,2.65-1.9h4.68V45.63h-6Z"/><path class="cls-2" d="M25.45,43.27a12.32,12.32,0,0,1-2.07-7.51V24.62q0-5.1,1.85-7.91t6.54-2.8c2.79,0,4.8.65,6,2s1.87,3.3,1.89,6l0,.54H34.05a7.68,7.68,0,0,0-.42-3,1.79,1.79,0,0,0-1.78-.87,1.89,1.89,0,0,0-1.49.58A3.85,3.85,0,0,0,29.62,21a26.58,26.58,0,0,0-.21,3.83V28A3.4,3.4,0,0,1,31,26.65a6.37,6.37,0,0,1,2.55-.48,5.58,5.58,0,0,1,5,2.42,12.06,12.06,0,0,1,1.56,6.59c0,3.46-.64,6.13-1.93,8s-3.44,2.84-6.46,2.84C29,46.05,26.83,45.13,25.45,43.27Zm8.27-3a12.5,12.5,0,0,0,.49-4.12,29.73,29.73,0,0,0-.12-3.06,3.32,3.32,0,0,0-.64-1.74,1.9,1.9,0,0,0-1.6-.66,2.58,2.58,0,0,0-1.45.43,3.07,3.07,0,0,0-1,1v5q0,4.44,2.48,4.44A1.81,1.81,0,0,0,33.72,40.31Z"/><path class="cls-2" d="M109.21,72.9s-1.6,2.13-1.14,4.2,2.84,3.31,2.84,3.31,1.6-2.13,1.13-4.2-2.83-3.31-2.83-3.31"/><path class="cls-2" d="M106.6,85.05s1.6-2.13,1.13-4.2-2.83-3.3-2.83-3.3-1.6,2.12-1.14,4.2,2.84,3.3,2.84,3.3"/><path class="cls-2" d="M113.19,82.78a5.27,5.27,0,0,0,3.62,1.53,5.5,5.5,0,0,0,3.35-2.15,5.27,5.27,0,0,0-3.62-1.54,5.5,5.5,0,0,0-3.35,2.16"/><path class="cls-2" d="M116,73.66c-1.57,1.59-1.35,4.4-1.35,4.4s2.77.24,4.34-1.35,1.34-4.4,1.34-4.4-2.76-.24-4.33,1.35"/><path class="cls-2" d="M112.5,89.1a5.51,5.51,0,0,0,3.73-1.42A5.25,5.25,0,0,0,113,85.44a5.51,5.51,0,0,0-3.73,1.42,5.25,5.25,0,0,0,3.23,2.24"/><path class="cls-2" d="M114.21,120H99.86a2,2,0,0,0,0,4.06h14.35a2,2,0,0,0,0-4.06"/><path class="cls-2" d="M114.21,142.36H99.86a2,2,0,1,0,0,4.06h14.35a2,2,0,1,0,0-4.06"/><path class="cls-2" d="M49.65,115.05a7.63,7.63,0,0,0-1-.26s.36.12,1,.26"/><path class="cls-2" d="M113.69,125.46H100.38a1.16,1.16,0,0,0-1.15,1.15v4l-8.69,1-12.68-.29v-7.75a34.4,34.4,0,0,0,5-1c12.22-3.44,14.88-11,14.61-18s2-9.87,5.29-11.1a14.38,14.38,0,0,1,2.71-.72,21.58,21.58,0,0,0,1.17,6.2l.87-.07a20.49,20.49,0,0,1-1.2-6.25,15.41,15.41,0,0,1,2.9-.09,17.84,17.84,0,0,1-2.76-2c.55-3.37,2.55-5.44,4.62-7.55a25.36,25.36,0,0,0,3.24-3.8l-.72-.47a25.06,25.06,0,0,1-3.13,3.67c-2,2.06-4,4.17-4.74,7.51a25.93,25.93,0,0,1-2.09-2.1c-3-3.38-6.89-.9-12.42,4.25S78.76,97.33,72,90.38c-9-9.18-16.78-9.12-22.14-8.6,3.67,1.56,5,5,6.81,13.7,1.94,9.14,6.85,13.27,13.56,13.84-3.11.5-3.92.94-8.92,4.39-3.9,2.7-9.4,1.84-11.63,1.34,4.09,1.27,8.94,5.56,13.27,7a32.15,32.15,0,0,0,7.91,1.63v7.41l-24.07-.51v5.17l43.78-1,8.69,1v4a1.16,1.16,0,0,0,1.15,1.16h13.31a1.16,1.16,0,0,0,1.15-1.16v-13.2A1.16,1.16,0,0,0,113.69,125.46Zm-40.77-1.63c1,0,1.9,0,2.85-.07v7.5l-2.85-.07Z"/><path class="cls-2" d="M45.52,135a1.85,1.85,0,0,1-1.7,2h-1a1.85,1.85,0,0,1-1.7-2v-3.58a1.86,1.86,0,0,1,1.7-2h1a1.86,1.86,0,0,1,1.7,2Z"/><path class="cls-2" d="M58.9,22.16v4.63H57.44V22.16H52.86V20.78h4.58V16.1H53.5V14.75h9.36V16.1h-4v4.68h4.59v1.38Zm-3.44-1.91c-.43-1-.86-2-1.37-3l1.29-.7a17.1,17.1,0,0,1,1.14,3Zm6.73-2.59c-.43.89-.85,1.78-1.33,2.64l-1.07-.51c.39-1.05.76-2.14,1.07-3.24l1.45.66a.31.31,0,0,1,.17.24C62.48,17.61,62.28,17.66,62.19,17.66Z"/><path class="cls-2" d="M71.14,15.61a.35.35,0,0,1-.2-.07,16.31,16.31,0,0,1-1.67.55V18h1.6v1.27h-1.6v.35A9.38,9.38,0,0,0,71.17,22l-.82,1.12a8.39,8.39,0,0,1-1.08-1.48v5.17H67.88v-5.1a8.62,8.62,0,0,1-1.74,2.58l-1-1a9.47,9.47,0,0,0,2.41-4.05h-2V18h2.31V16.33c-.62.11-1.23.19-1.85.26l-.52-1.22a11,11,0,0,0,4.83-1.28,11.33,11.33,0,0,1,1,1.32A.19.19,0,0,1,71.14,15.61ZM71.33,26V15.93h4.79V26Zm3.4-8.76H72.67v7.48h2.06Z"/><path class="cls-2" d="M83.76,26.51c-1.72,0-4.47-.27-4.47-3,0-1.95,1.44-2.95,2.81-3.63a22,22,0,0,1-.49-5l1.1.08.54.06c.06,0,.14,0,.14.13a.27.27,0,0,1-.09.15,9.44,9.44,0,0,0-.07,1.3,8.48,8.48,0,0,0,.23,2.52.15.15,0,0,0,.11,0,13.66,13.66,0,0,0,3-1.25c.18.6.3,1.24.45,1.86-1.51.35-6.3,1.26-6.3,3.58,0,1.31,1.79,1.57,2.62,1.57a10.46,10.46,0,0,0,3.87-.64c.07.59.13,1.2.17,1.81A18.12,18.12,0,0,1,83.76,26.51Z"/><path class="cls-2" d="M94.3,15.6A13.18,13.18,0,0,1,91,21.11l-1.1-.85a10.89,10.89,0,0,0,3-5.71l1.59.63a.2.2,0,0,1,.14.19A.26.26,0,0,1,94.3,15.6ZM98.83,27l-.71-1.35c-2.19.32-4.38.55-6.58.8-.05.07-.13.17-.22.17s-.11-.06-.13-.13l-.45-1.42A7.81,7.81,0,0,0,91.81,25c.28-.07.32-.1.49-.38a26.41,26.41,0,0,0,1.35-2.9,26,26,0,0,0,1-2.72l1.52.82a.25.25,0,0,1,.15.19c0,.16-.18.24-.29.26a48.3,48.3,0,0,1-2.45,4.61c1.3-.13,2.61-.29,3.91-.45-.34-.62-.69-1.23-1.06-1.82.39-.29.79-.55,1.19-.82.86,1.44,1.64,2.93,2.4,4.44ZM100,21.09a13.11,13.11,0,0,1-3.8-5.58c.48-.27,1-.57,1.44-.83a10.29,10.29,0,0,0,3.41,5.21Z"/><path class="cls-2" d="M102.38,26.41V25.08h1.84V18.34l1.42.1a.19.19,0,0,1,.2.17.26.26,0,0,1-.2.24v6.23h1.71V16.43H102.9V15h9.85v1.4h-3.91v3.3h3.29v1.44h-3.31V25H113v1.39Z"/><path class="cls-2" d="M124.87,20.91a.34.34,0,0,1-.18-.07c-.87.3-2.54,1-3.34,1.32v2.17h-1.42c0-.2,0-.41,0-.64v-.8c-1,.45-1.45,1-1.45,1.68s.56.86,1.65.86a10.69,10.69,0,0,0,3.52-.56l0,1.65a10,10,0,0,1-3,.4c-2.36,0-3.55-.74-3.55-2.25a2.8,2.8,0,0,1,1-2,8.74,8.74,0,0,1,1.83-1.21c0-.64-.21-1-.56-1a1.73,1.73,0,0,0-1.24.54,9.48,9.48,0,0,0-.93.95c-.45.49-.73.84-.9,1l-1-1.15a10.16,10.16,0,0,0,3-3.82c-.64.08-1.35.14-2.12.18,0-.54-.12-1-.19-1.47a20.67,20.67,0,0,0,2.76-.14,11.67,11.67,0,0,0,.41-1.94l1.63.37a.15.15,0,0,1,.14.16c0,.09-.06.16-.19.22q-.09.36-.33,1.08a18.86,18.86,0,0,0,2.26-.52l-.13,1.55c-.67.14-1.56.28-2.67.44a8.49,8.49,0,0,1-.75,1.41,2.26,2.26,0,0,1,.69-.1c.74,0,1.22.49,1.44,1.5,1-.5,2.06-1,3.25-1.56l.56,1.58C125,20.85,125,20.91,124.87,20.91Z"/><path class="cls-2" d="M63.1,36.26c-.5,0-1,0-1.47,0-.73,0-1.45,0-2.16,0,0,.52,0,1,0,1.56A4.47,4.47,0,0,1,59.94,40c0,2.35-1,4.46-3,5.19-.43-.37-.89-.69-1.32-1.07a3.69,3.69,0,0,0,2.62-2.43,1.82,1.82,0,0,1-1,.23c-1,0-1.63-1.28-1.63-2.37,0-1.35.69-2.69,2-2.69a2,2,0,0,1,.48.05c0-.22,0-.45,0-.67-.82,0-1.64.09-2.44.16s-1.56.19-2.33.32c-.05-.54,0-1.09-.05-1.63,1.6-.07,3.2-.11,4.8-.2,0-.7-.06-1.39-.07-2.09.35,0,.72.08,1.07.14.15,0,.32,0,.45.07s.18,0,.18.17a.36.36,0,0,1-.16.29c0,.45,0,.91,0,1.36,1.23,0,2.47-.1,3.7-.17Zm-5.38,2c-.56,0-.8.61-.8,1.19s.15,1.14.64,1.14.63-.78.63-1.26S58.19,38.27,57.72,38.27Z"/><path class="cls-2" d="M74,44.78c-.61-.76-1.33-1.55-2-2.4-.76-1-1.55-2-2.28-3-.26-.34-.51-.7-.77-1-.13-.17-.29-.48-.53-.48s-.64.58-.81.83-.49.73-.72,1.07c-.41.62-.77,1.26-1.17,1.87v.07c0,.11,0,.2-.15.2l-1.34-1.22a18.27,18.27,0,0,0,1.42-1.72c.46-.64.87-1.34,1.35-2A1.82,1.82,0,0,1,68.52,36a1.65,1.65,0,0,1,1.2.7c.26.3.51.69.75,1,.57.74,1.14,1.5,1.72,2.21.89,1.11,2,2.44,3,3.48Zm-2-7.84c-.29-.67-.63-1.32-1-2l.91-.54a14.93,14.93,0,0,1,.93,2Zm1.53-.66a18.21,18.21,0,0,0-1-2l.92-.52a19.89,19.89,0,0,1,.91,2Z"/><path class="cls-2" d="M86.29,35.83h-.16a4.48,4.48,0,0,0-1.72.29,4.86,4.86,0,0,0-2.75,4.48c0,2.92,2.34,3.26,4.3,3.26-.09.55-.19,1.11-.32,1.66h-.27a7.34,7.34,0,0,1-2.7-.5,4.1,4.1,0,0,1-2.51-4,7.86,7.86,0,0,1,1.29-4.4c-1.44.27-2.89.58-4.32.94-.08-.56-.19-1.11-.26-1.66a70.35,70.35,0,0,0,7.46-1.37A17.55,17.55,0,0,0,86,34c0,.21.43,1.58.43,1.69S86.38,35.83,86.29,35.83Z"/><path class="cls-2" d="M94.92,45c-.38-.41-.71-.85-1.09-1.24,1.91-.54,3.67-1.31,3.67-4A3.71,3.71,0,0,0,95,35.91c-.33,2.44-1,6.32-2.86,7.76a1.5,1.5,0,0,1-2.41-.37,5,5,0,0,1-.77-2.89c0-3.45,2.45-5.89,5.31-5.89,2.66,0,4.82,1.84,4.82,5.13A5.13,5.13,0,0,1,94.92,45Zm-4.25-6.5a5.44,5.44,0,0,0-.33,1.93c0,.58.1,2.07.78,2.07.24,0,.44-.27.59-.45,1.14-1.35,1.62-4.24,1.74-6.09A4.35,4.35,0,0,0,90.67,38.48Z"/><path class="cls-2" d="M111,45.32a12.23,12.23,0,0,1-4.45-6.14,15.56,15.56,0,0,1-.66,1.85,9.31,9.31,0,0,1-2.61,3.44,7.25,7.25,0,0,1-1.24.8L101,44.09a7,7,0,0,0,1.44-.92,9,9,0,0,0,3-5.54,25.84,25.84,0,0,0,.19-4.4l1.68.19a.23.23,0,0,1,.23.21.28.28,0,0,1-.22.25c0,.58,0,1.14,0,1.72A10.49,10.49,0,0,0,109.11,41a10.19,10.19,0,0,0,3.13,2.88Z"/><path class="cls-2" d="M116.61,45l-1.32.16a17.49,17.49,0,0,1-.62-5.31,33.24,33.24,0,0,1,.62-6l1,.24a2.33,2.33,0,0,1,.52.13.18.18,0,0,1,.14.18.2.2,0,0,1-.2.18,26.86,26.86,0,0,0-.7,6.2c0,.51,0,1,0,1.51.21-.63.42-1.28.65-1.92l.9.82A13.1,13.1,0,0,0,116.61,45Zm7.42-.74a13.92,13.92,0,0,1-2.13.18c-1.83,0-3.54-.22-3.85-2.77.43-.32.85-.64,1.28-.94,0,1.46.81,2.09,2,2.09a10.69,10.69,0,0,0,2.8-.39C124.1,43,124.06,43.64,124,44.26Zm-.7-7.39a9,9,0,0,0-2.68-.39,11.94,11.94,0,0,0-1.88.17c0-.51,0-1,0-1.51a13.92,13.92,0,0,1,2.66-.23,9.54,9.54,0,0,1,2.18.3C123.5,35.76,123.42,36.32,123.33,36.87Z"/></g></g></svg>