<svg xmlns="http://www.w3.org/2000/svg" viewBox="0 0 164.33 164.33"><defs><style>.cls-1{fill:#0075ba;}.cls-2{fill:#fff;}</style></defs><g id="レイヤー_2" data-name="レイヤー 2"><g id="Layer_1" data-name="Layer 1"><rect class="cls-1" width="164.33" height="164.33"/><path class="cls-2" d="M14.09,20.48a24.1,24.1,0,0,1-2.47,1c-1.09.36-1.77.61-2,.74V17.74a26.32,26.32,0,0,0,3.19-1.55,10.89,10.89,0,0,0,2.65-1.9h4.68V45.63h-6Z"/><path class="cls-2" d="M32.16,38.2H22.72V33.48l8.16-19.19h6.69V33.67h3.14V38.2H37.57v7.43H32.16Zm0-4.53V20.37L27.4,33.67Z"/><path class="cls-2" d="M126.37,120.07c-2.07-2.8-15.49-19.91-34.31-19.91C75.72,100.16,58.24,115,58.24,115s-6.56-13.44-20-14.73l-.26,0h-.08a.54.54,0,0,0-.51.53,1.47,1.47,0,0,0,.21.49c1.73,2.88,6.15,11,6.15,19.22s-4.45,16.4-6.16,19.26l-.12.18a.54.54,0,0,0-.08.28.53.53,0,0,0,.49.53h.29C51.65,139.44,58.24,126,58.24,126s17.48,14.82,33.82,14.82c18.82,0,32.24-17.11,34.31-19.91l.15-.19a.71.71,0,0,0,0-.21.59.59,0,0,0,0-.2,2.08,2.08,0,0,0-.15-.2m-23.85,2.56a5.49,5.49,0,1,1,5.5-5.49,5.49,5.49,0,0,1-5.5,5.49"/><path class="cls-2" d="M57,84.82a.5.5,0,0,1,.14-.15.63.63,0,0,1,.3-.1.56.56,0,0,1,.37.15,0,0,0,0,0,0,0c10.26,9.78,21,1.86,23.26,0l.22-.21a.64.64,0,0,1,.2,0,.78.78,0,0,1,.22,0l.22.21c2.23,1.86,13,9.78,23.25,0l0,0a.53.53,0,0,1,.36-.15.56.56,0,0,1,.3.1.43.43,0,0,1,.15.15c2,2,10.58,9.35,19.67,1.45a.5.5,0,0,0,.16-.38V82.14a.54.54,0,0,0-.53-.54l-.12,0-.27.14c-2.79,1.4-11.46,4.72-19.32-2.71l-.23-.21a.36.36,0,0,0-.23-.06.29.29,0,0,0-.16,0,.52.52,0,0,0-.28.2c-2.34,1.79-13.1,9.07-22.68.14L81.91,79a.59.59,0,0,0-.39-.15.54.54,0,0,0-.37.15l-.15.15c-9.58,8.93-20.35,1.65-22.69-.14a.47.47,0,0,0-.26-.2.39.39,0,0,0-.18,0,.37.37,0,0,0-.22.06l-.23.21c-7.87,7.43-16.53,4.11-19.32,2.71l-.28-.14-.1,0a.54.54,0,0,0-.54.54v3.75a.5.5,0,0,0,.16.38c9.08,7.9,17.68.51,19.67-1.45"/><path class="cls-2" d="M37.82,68l-.1,0a.55.55,0,0,0-.54.55v3.74a.52.52,0,0,0,.16.39c9.08,7.89,17.68.5,19.67-1.46a.66.66,0,0,1,.14-.15.54.54,0,0,1,.3-.1.56.56,0,0,1,.37.15,0,0,0,0,0,0,0c10.26,9.79,21,1.86,23.26,0l.22-.2a.45.45,0,0,1,.2,0,.46.46,0,0,1,.21,0l.23.2c2.23,1.86,13,9.79,23.25,0l0,0a.53.53,0,0,1,.36-.15.49.49,0,0,1,.3.1.71.71,0,0,1,.15.15c2,2,10.58,9.35,19.67,1.46a.52.52,0,0,0,.16-.39V68.52a.54.54,0,0,0-.53-.55.53.53,0,0,0-.12,0l-.27.14c-2.8,1.4-11.46,4.72-19.32-2.72a2.19,2.19,0,0,1-.23-.21.56.56,0,0,0-.23,0l-.16,0a.67.67,0,0,0-.28.21c-2.34,1.79-13.1,9.07-22.68.14l-.14-.14a.6.6,0,0,0-.39-.16.55.55,0,0,0-.37.16l-.15.14c-9.58,8.93-20.35,1.65-22.69-.14a.61.61,0,0,0-.26-.21l-.18,0a.59.59,0,0,0-.22,0,1.51,1.51,0,0,1-.23.21c-7.86,7.44-16.53,4.12-19.32,2.72L37.82,68"/><path class="cls-2" d="M56.67,21.75a22.15,22.15,0,0,0-2-1.38L55.45,19a11.49,11.49,0,0,1,1.94,1.63Zm-.47,6.17a1.35,1.35,0,0,1,0,.29c0,.08,0,.17-.12.17s-1.32-.92-1.46-1a22.21,22.21,0,0,0,1.72-4.71l1.15,1.24C57.16,25.27,56.7,26.6,56.2,27.92Zm1.06-9.58A12.87,12.87,0,0,0,55.35,17l.95-1.41a12.84,12.84,0,0,1,1.81,1.73Zm7.61,5.43c0,.71-.05,1.41-.12,2.11h.87v1.28H64.46a2.9,2.9,0,0,1-1.37,1.58L62,27.92a2.19,2.19,0,0,0,1-.76H58.31c.15-1.12.24-2.25.35-3.39h-.95V22.54h1L58.92,20a5.74,5.74,0,0,1-.59.7l-.94-.79a11.5,11.5,0,0,0,2.24-4.74l1.54.62a.2.2,0,0,1,.13.17.25.25,0,0,1-.26.24c-.12.29-.26.57-.39.85h4.93v1.28H60.11a8.45,8.45,0,0,1-.6.95h5.43c0,1.08,0,2.17,0,3.25H66v1.23Zm-4.94,0-.19,2.14h1.17L61,23.77Zm.25-3.29L60,22.54h1.08l.11-2.06Zm2.13,3.29-.13,2.14h1.19a13.2,13.2,0,0,0,.16-2.14Zm1.25-3.29H62.5l-.13,2.06h1.18c0-.28,0-.55,0-.84Z"/><path class="cls-2" d="M74,27.87c-.34-.42-.65-.86-1-1.27,1.74-.55,3.34-1.34,3.34-4.09,0-1.86-.86-3.55-2.29-3.93-.3,2.5-.89,6.47-2.61,8a1.3,1.3,0,0,1-2.21-.38,5.71,5.71,0,0,1-.7-3c0-3.54,2.23-6,4.85-6,2.42,0,4.39,1.89,4.39,5.26C77.74,25.56,76.13,27.21,74,27.87Zm-3.88-6.66a6.21,6.21,0,0,0-.3,2c0,.59.09,2.13.71,2.13.22,0,.41-.28.54-.47,1-1.39,1.47-4.35,1.59-6.24A4.17,4.17,0,0,0,70.08,21.21Z"/><path class="cls-2" d="M80.26,28.33V27.21H83a8.51,8.51,0,0,0-.59-1c.19-.13.39-.24.58-.36h-1.3V23.06h7.52v2.83H87.76l.52.22a.17.17,0,0,1,.11.15c0,.14-.15.2-.24.2-.15.24-.28.51-.42.75h2.81v1.12Zm.07-5.73V21.45H90.41V22.6Zm1-1.66V16.59h2.33V15.51l1.28.1a.18.18,0,0,1,.19.16.27.27,0,0,1-.2.24v.58h1V15.51l1.26.1a.17.17,0,0,1,.19.16.25.25,0,0,1-.19.24v.58h2.39v4.35Zm2.36-3.28H82.57v.69h1.08Zm0,1.64H82.57V20h1.09Zm4.16,4.75H83v.84h4.87Zm-3.95,1.84c.13.44.29.87.39,1.32h2.15l.37-1.32Zm2-8.23h-1v.69h1Zm0,1.64h-1V20h1Zm2.31-1.64H87.12v.69h1.09Zm0,1.64H87.12V20h1.09Z"/><path class="cls-2" d="M98.41,27.09a1.8,1.8,0,0,1-1.34.42,2.84,2.84,0,0,1-1.17-.26c0-.55-.07-1.08-.14-1.62a2.62,2.62,0,0,0,1.31.41c1,0,1-3.17,1-3.95,0-.58,0-1.62-.67-1.62a2.93,2.93,0,0,0-.71.12,27.55,27.55,0,0,1-2.53,7c-.46-.23-.9-.52-1.36-.76a19.5,19.5,0,0,0,2.39-6c-.54.11-1.09.24-1.62.39,0-.18-.35-1.47-.35-1.53s0-.05.06-.05l.31,0a11.08,11.08,0,0,0,1.9-.23,23.8,23.8,0,0,0,.43-3.35c.38.09.73.21,1.1.32a2.57,2.57,0,0,1,.47.15c.06,0,.14.06.14.14s-.1.16-.16.18c-.14.8-.29,1.6-.49,2.37.23,0,.47-.07.71-.07a1.43,1.43,0,0,1,1.58,1.2,7.91,7.91,0,0,1,.22,2.13C99.44,23.76,99.26,26.25,98.41,27.09Zm2.94-2.65c-.26-.4-.54-.78-.83-1.18.34-.05,1.21-.26,1.21-.79,0-.93-1.14-2.55-1.7-3.16.41-.27.82-.55,1.24-.81a8,8,0,0,1,2,4.19C103.25,23.81,102.08,24.19,101.35,24.44Z"/><path class="cls-2" d="M110.73,19.44c.75,1.44,1.44,2.93,2.13,4.42l-1,1a4.46,4.46,0,0,0-3-1.48c-.7,0-1.65.32-1.65,1.35,0,1.42,1.5,1.56,2.37,1.56a9.88,9.88,0,0,0,2-.22c0,.52-.06,1-.09,1.54a11.61,11.61,0,0,1-1.86.11c-1.66,0-3.85-.33-3.85-2.88,0-2.06,1.55-2.64,3-2.64a5.78,5.78,0,0,1,1.91.37c-.2-.49-.44-1-.67-1.46s-.38-.78-.59-1.17a15.56,15.56,0,0,1-3.58.91c-.15-.49-.34-1-.5-1.46a10.61,10.61,0,0,0,3.36-.7,17.66,17.66,0,0,0-1.15-2,.18.18,0,0,1-.17-.16.18.18,0,0,1,.11-.15c.44-.21.9-.36,1.33-.53.45.73.82,1.5,1.21,2.29a13.83,13.83,0,0,0,2.22-1.37c.23.5.44,1,.66,1.51A14.4,14.4,0,0,1,110.73,19.44Z"/><path class="cls-2" d="M125.29,22a.34.34,0,0,1-.18-.07c-.87.3-2.55,1-3.34,1.33v2.17l-1.43,0c0-.19,0-.41,0-.65V24c-1,.45-1.45,1-1.45,1.67s.55.86,1.65.86a10.59,10.59,0,0,0,3.51-.56l0,1.65a9.93,9.93,0,0,1-3,.4c-2.37,0-3.55-.74-3.55-2.25a2.8,2.8,0,0,1,1-2,8.48,8.48,0,0,1,1.83-1.21c0-.64-.22-1-.56-1a1.76,1.76,0,0,0-1.25.54,12.33,12.33,0,0,0-.93.95c-.44.5-.72.84-.89,1-.21-.26-.55-.64-1-1.16a10.16,10.16,0,0,0,3-3.82c-.64.08-1.35.14-2.12.18,0-.53-.12-1-.19-1.46a22.52,22.52,0,0,0,2.76-.14,13,13,0,0,0,.41-1.95l1.63.37c.09,0,.14.08.14.16s-.06.16-.19.22c-.06.24-.17.61-.33,1.08a18.86,18.86,0,0,0,2.26-.52l-.14,1.55c-.66.14-1.55.28-2.66.44a9.31,9.31,0,0,1-.75,1.41,2.26,2.26,0,0,1,.69-.1c.74,0,1.22.49,1.43,1.51,1-.51,2.07-1,3.26-1.57l.56,1.58C125.44,22,125.39,22,125.29,22Z"/><path class="cls-2" d="M63.19,40.24V43c0,2.21-.61,3-2.48,3.31l-.84-1.18c1.33-.2,1.91-.4,1.91-2.15,0-.9,0-1.79,0-2.69H55.5V38.92h6.26v-2l1.43.1c.09,0,.21.05.21.17a.28.28,0,0,1-.21.24v1.5h3.1v1.32Zm1.19-2.16V36.25h-7v1.82H56V34.94h4V33.23l1.5.12a.16.16,0,0,1,.18.17c0,.11-.11.19-.19.22v1.2h4.25v3.14ZM59.31,44.2A21,21,0,0,0,57,41.75c.34-.37.67-.76,1-1.13a29.48,29.48,0,0,1,2.27,2.58Z"/><path class="cls-2" d="M72.34,46.09a6.45,6.45,0,0,0-.65-1.15s-.07-.09-.07-.13.07-.05.09-.07a11,11,0,0,0,1.79-.23c1.25-.32,2.4-1,2.4-2.69a1.76,1.76,0,0,0-2-2,4.06,4.06,0,0,0-3.16,2,23.56,23.56,0,0,0-1.34,2c-.41-.36-.82-.74-1.23-1.13a40.33,40.33,0,0,0,3.45-4.75,13,13,0,0,0,1-1.86l-1,.26c-.56.15-1.14.32-1.72.45-.09-.55-.17-1.1-.28-1.65a26.9,26.9,0,0,0,4-.69,6.18,6.18,0,0,0,.83-.27,9.39,9.39,0,0,1,.76,1.2c0,.14-.14.18-.23.2a23.84,23.84,0,0,0-2.46,3.24,6,6,0,0,1,1.57-.24A3.1,3.1,0,0,1,77.45,42C77.45,45,74.41,46,72.34,46.09Z"/><path class="cls-2" d="M83.26,46.44c-.44-.41-.89-.83-1.36-1.19a5.8,5.8,0,0,0,3.47-2.46,4.43,4.43,0,0,0,.47-2.07c0-1.25-.41-2-1.53-2a9.81,9.81,0,0,0-3.41,1.51c-.09-.22-.67-1.67-.67-1.8s.12-.08.17-.08A8,8,0,0,0,81.9,38a8.21,8.21,0,0,1,2.81-.72c1.93,0,2.77,1.52,2.77,3.63A6,6,0,0,1,83.26,46.44Zm2.11-10.16A17.75,17.75,0,0,0,82,35c.23-.5.45-1,.67-1.52a13.28,13.28,0,0,1,3.5,1.28C85.89,35.28,85.65,35.79,85.37,36.28Z"/></g></g></svg>