<svg xmlns="http://www.w3.org/2000/svg" viewBox="0 0 163.78 163.78"><defs><style>.cls-1{fill:#f8f8f8;}.cls-2{fill:#28a838;}.cls-3{fill:#d7a600;}.cls-4{fill:#c60f28;}.cls-5{fill:#00973b;}.cls-6{fill:#427935;}.cls-7{fill:#fabd00;}.cls-8{fill:#e83819;}.cls-9{fill:#f5a200;}.cls-10{fill:#0075ba;}.cls-11{fill:#970b31;}.cls-12{fill:#00a6d9;}.cls-13{fill:#ed6a02;}.cls-14{fill:#e5001e;}.cls-15{fill:#dc007a;}.cls-16{fill:#003067;}.cls-17{fill:#d39200;}.cls-18{fill:#004c88;}</style></defs><g id="レイヤー_2" data-name="レイヤー 2"><g id="Layer_1" data-name="Layer 1"><rect class="cls-1" width="163.78" height="163.78"/><path class="cls-2" d="M57.29,67.68a28.4,28.4,0,0,1,4.5-5.78L47,45.72a50.62,50.62,0,0,0-9.36,12.19Z"/><path class="cls-3" d="M93.45,56.26a27.8,27.8,0,0,1,6.18,3.87L114.42,44a50.37,50.37,0,0,0-13.1-8.18Z"/><path class="cls-4" d="M127.32,61.12l-19.6,9.77a28.41,28.41,0,0,1,2,6.93l21.81-2.06a49.75,49.75,0,0,0-4.17-14.64"/><path class="cls-5" d="M106.31,68.06l19.6-9.77a50.32,50.32,0,0,0-9.16-12.16L102,62.27a28,28,0,0,1,4.35,5.79"/><path class="cls-6" d="M53.4,82q0-.66,0-1.32l-21.81-2c-.07,1.08-.11,2.17-.11,3.27A50.5,50.5,0,0,0,33,94.12l21.07-6A28.48,28.48,0,0,1,53.4,82"/><path class="cls-7" d="M103.57,99.92a29,29,0,0,1-5.32,5l11.51,18.65A50.62,50.62,0,0,0,121,113.09Z"/><path class="cls-8" d="M110,82a28.47,28.47,0,0,1-.65,6l21.06,6A50.06,50.06,0,0,0,131.87,82c0-1,0-2.06-.09-3.08L110,81c0,.34,0,.68,0,1"/><path class="cls-9" d="M60.17,100.33,42.74,113.58A50.83,50.83,0,0,0,54.12,123.9l11.52-18.63a28.55,28.55,0,0,1-5.47-4.94"/><path class="cls-10" d="M53.75,77.52a28.27,28.27,0,0,1,2.09-7l-19.6-9.76a49.88,49.88,0,0,0-4.32,14.83Z"/><path class="cls-11" d="M107.08,125.25l-11.5-18.62a27.8,27.8,0,0,1-6.71,2.73l4.06,21.54a49.78,49.78,0,0,0,14.15-5.65"/><path class="cls-12" d="M108.5,91.06a28.47,28.47,0,0,1-3.06,6.3l17.49,13.19a49.69,49.69,0,0,0,6.61-13.45Z"/><path class="cls-13" d="M85.77,110a28.81,28.81,0,0,1-4.08.29,29.81,29.81,0,0,1-3.29-.19l-4.06,21.54a50.41,50.41,0,0,0,15.49-.12Z"/><path class="cls-14" d="M83.5,53.75a28.37,28.37,0,0,1,7,1.35l7.87-20.44A49.52,49.52,0,0,0,83.5,31.84Z"/><path class="cls-15" d="M75.28,109.55a28,28,0,0,1-7-2.63L56.81,125.56a50.28,50.28,0,0,0,14.42,5.51Z"/><path class="cls-16" d="M73.19,55a28.13,28.13,0,0,1,7.15-1.27V31.83a49.77,49.77,0,0,0-15.07,2.74Z"/><path class="cls-17" d="M58.25,97.81a28.28,28.28,0,0,1-3.34-6.69l-21,6a50,50,0,0,0,7,13.89Z"/><path class="cls-18" d="M64.16,59.8a28.57,28.57,0,0,1,6.07-3.68L62.31,35.7A50.16,50.16,0,0,0,49.4,43.61Z"/></g></g></svg>